<svg width="16" height="16" viewBox="0 0 16 16" fill="none" xmlns="http://www.w3.org/2000/svg">
<path d="M12.9737 5.33318L13.5004 4.16652L14.667 3.63985C14.927 3.51985 14.927 3.15318 14.667 3.03318L13.5004 2.50652L12.9737 1.33318C12.8537 1.07318 12.487 1.07318 12.367 1.33318L11.8404 2.49985L10.667 3.02652C10.407 3.14652 10.407 3.51318 10.667 3.63318L11.8337 4.15985L12.3604 5.33318C12.4804 5.59318 12.8537 5.59318 12.9737 5.33318ZM7.66702 6.33318L6.60702 3.99985C6.37368 3.47985 5.62702 3.47985 5.39369 3.99985L4.33369 6.33318L2.00035 7.39318C1.48035 7.63318 1.48035 8.37318 2.00035 8.60652L4.33369 9.66652L5.39369 11.9999C5.63369 12.5199 6.37368 12.5199 6.60702 11.9999L7.66702 9.66652L10.0004 8.60652C10.5204 8.36652 10.5204 7.62652 10.0004 7.39318L7.66702 6.33318ZM12.3604 10.6665L11.8337 11.8332L10.667 12.3599C10.407 12.4799 10.407 12.8465 10.667 12.9665L11.8337 13.4932L12.3604 14.6665C12.4804 14.9265 12.847 14.9265 12.967 14.6665L13.4937 13.4999L14.667 12.9732C14.927 12.8532 14.927 12.4865 14.667 12.3665L13.5004 11.8399L12.9737 10.6665C12.8537 10.4065 12.4804 10.4065 12.3604 10.6665Z" fill="url(#paint0_linear_2113_51906)"/>
<defs>
<linearGradient id="paint0_linear_2113_51906" x1="8.23619" y1="1.13818" x2="8.23619" y2="14.8615" gradientUnits="userSpaceOnUse">
<stop stop-color="#22A148"/>
<stop offset="1" stop-color="#FFEB3B"/>
</linearGradient>
</defs>
</svg>
