<svg width="109" height="34" viewBox="0 0 109 34" fill="none" xmlns="http://www.w3.org/2000/svg">
<path d="M2.45221 6.16811V6.97739H2.45239C2.83754 6.70024 3.3838 6.51734 4.1756 6.5031L30.5042 6.54707C31.6408 6.48418 32.5213 6.0126 32.5213 5.43903C32.5213 5.05773 32.1618 4.744 31.6986 4.70003L31.6997 4.69607L5.10225 3.45738C2.76386 3.4963 2.45221 4.91303 2.45221 6.16811Z" fill="url(#paint0_linear_1291_16536)"/>
<path d="M2.29388 5.61239V6.21434C2.29388 4.97541 2.60643 3.57768 4.95156 3.53927L31.6255 4.76166L31.6248 4.76557C31.9396 4.80896 32.3328 5.00902 32.3652 5.35703H33.1136C33.1092 5.21335 33.0868 5.0613 33.0284 4.93558C32.9521 4.7437 32.809 4.58526 32.5582 4.44477C32.4219 4.35657 32.2683 4.28882 32.0995 4.24543C31.9301 4.19172 31.7726 4.15883 31.6635 4.15883L4.95156 2.9375C2.60643 2.97574 2.46182 4.59344 2.29388 5.61239Z" fill="url(#paint1_linear_1291_16536)"/>
<path d="M27.8393 24.4262L2.1615 18.3074L6.40494 0.775105L32.0828 6.89192" fill="#2A55E5"/>
<path d="M31.6856 7.1838L6.52545 1.18056L2.42627 18.1516L27.5853 24.1559" fill="#FAFAFA"/>
<path d="M3.88422 16.6212L26.7414 22.0735L30.1725 7.87816L7.31405 2.42432L3.88422 16.6212Z" fill="url(#paint2_linear_1291_16536)"/>
<path d="M7.33922 5.16835L5.20325 14.035C5.19001 14.0887 5.18366 14.1422 5.18366 14.1944C5.18313 14.4456 5.32629 14.6658 5.54448 14.7178L25.9681 19.6026C26.2315 19.6655 26.5095 19.4616 26.584 19.1493L28.7209 10.2828C28.7337 10.2291 28.7401 10.1756 28.7403 10.1234C28.7404 9.87215 28.5969 9.65255 28.378 9.59959L7.95601 4.71613C7.9237 4.70763 7.89052 4.70456 7.85804 4.70456C7.62608 4.70456 7.40489 4.89633 7.33922 5.16835Z" fill="url(#paint3_linear_1291_16536)"/>
<path d="M8.61052 3.21061L9.07496 3.33077L8.79693 4.43948L8.20133 4.28541L8.17291 4.39452L10.2123 4.92178L10.2392 4.81176L9.68398 4.66875L10.0339 3.26719L9.81214 3.21061C9.67745 3.2283 9.50304 3.22572 9.28591 3.20047C9.0702 3.17264 8.85642 3.13191 8.643 3.07773L8.61052 3.21061Z" fill="url(#paint4_linear_1291_16536)"/>
<path fill-rule="evenodd" clip-rule="evenodd" d="M10.282 4.82888L10.3002 4.7577L9.83219 4.64021L10.1662 3.33863L10.0756 3.31629L10.0933 3.24835L9.80307 3.17555C9.66114 3.19375 9.48285 3.18799 9.26643 3.16312C9.0523 3.13591 8.82811 3.09446 8.59527 3.03482L8.54832 3.2161L8.63905 3.23844L8.62122 3.30872L8.99881 3.40495L8.75256 4.36793L8.15519 4.21728L8.1153 4.37532L8.20303 4.39694L8.1852 4.46812L10.3314 5.00998L10.3731 4.85122L10.282 4.82888ZM10.2391 4.77012L10.2124 4.8777L8.17302 4.36215L8.20127 4.25529L8.79705 4.40594L9.07508 3.32204L8.61063 3.20455L8.64294 3.07463C8.85636 3.12761 9.07013 3.16725 9.28585 3.19464C9.50315 3.21933 9.67739 3.22185 9.81296 3.20455L10.035 3.25915L9.68392 4.62939L10.2391 4.77012Z" fill="#FFFFF7"/>
<path fill-rule="evenodd" clip-rule="evenodd" d="M10.799 3.9529C10.8961 3.87384 11.0118 3.82078 11.1525 3.79319C11.2348 3.77791 11.3246 3.7707 11.4215 3.7707C11.4888 3.7707 11.5605 3.77404 11.6345 3.78124C11.817 3.80215 12.0153 3.83764 12.2268 3.88947C12.4432 3.94253 12.6372 4.00157 12.8092 4.06605C12.9793 4.13369 13.1217 4.21222 13.2353 4.29849C13.3481 4.38686 13.4235 4.48806 13.4678 4.60086C13.4918 4.66305 13.5038 4.72911 13.5036 4.79974C13.5033 4.85825 13.4947 4.91992 13.478 4.98493C13.439 5.12987 13.3709 5.24074 13.2754 5.31962C13.1808 5.39886 13.0642 5.4528 12.9209 5.47634C12.8735 5.48565 12.8233 5.49198 12.771 5.4962C12.6666 5.5041 12.553 5.50199 12.4307 5.48899C12.2472 5.46826 12.0466 5.43259 11.8303 5.38024C11.6191 5.32788 11.4272 5.26885 11.2562 5.20595C11.0867 5.13725 10.9493 5.05924 10.8393 4.97122C10.7281 4.88654 10.6523 4.78463 10.609 4.67184C10.5846 4.60982 10.5723 4.54376 10.5725 4.4726C10.5726 4.41357 10.5814 4.3512 10.5988 4.28549C10.6378 4.14353 10.705 4.03301 10.799 3.9529ZM11.7201 5.19138C11.767 5.21633 11.8148 5.23671 11.865 5.24884C11.9143 5.26166 11.9644 5.26658 12.0146 5.26658H12.0319C12.0846 5.265 12.1394 5.24708 12.1924 5.21159C12.2397 5.18014 12.2884 5.12374 12.3348 5.04942C12.378 4.97282 12.4176 4.87144 12.4531 4.73651C12.4874 4.60931 12.5045 4.50495 12.5045 4.42114C12.5045 4.41569 12.5043 4.41007 12.5039 4.4048C12.5005 4.31608 12.4869 4.24914 12.4586 4.19432C12.4316 4.14161 12.3943 4.10313 12.3475 4.07731C12.3001 4.05078 12.2481 4.03198 12.1931 4.01845C12.1421 4.00721 12.0903 4.00053 12.0368 4.00158C11.9875 4.00387 11.9349 4.02073 11.8838 4.05552C11.8362 4.09189 11.7901 4.14425 11.7455 4.22102C11.6988 4.29517 11.6603 4.40006 11.623 4.53481C11.5918 4.65604 11.5741 4.75619 11.5734 4.84C11.5734 4.84596 11.5735 4.85176 11.5737 4.85746C11.5738 4.86015 11.5739 4.86282 11.5739 4.86547C11.5754 4.95121 11.5891 5.02043 11.614 5.07121C11.6404 5.12532 11.6766 5.16573 11.7201 5.19138Z" fill="url(#paint5_linear_1291_16536)"/>
<path fill-rule="evenodd" clip-rule="evenodd" d="M14.2234 4.76399C14.3181 4.68105 14.4365 4.62448 14.5757 4.59628C14.6585 4.58061 14.7496 4.57195 14.8492 4.57195C14.9151 4.57195 14.985 4.57509 15.0584 4.58301C15.2392 4.6042 15.4364 4.64125 15.6494 4.69617C15.8661 4.75127 16.0569 4.81319 16.2319 4.88083C16.4004 4.95289 16.5428 5.03379 16.655 5.12447C16.7683 5.21661 16.8473 5.32424 16.8907 5.44274C16.9145 5.50798 16.9267 5.57728 16.9267 5.65118C16.9267 5.71237 16.9181 5.77687 16.9011 5.84469C16.862 5.99802 16.7961 6.11376 16.6985 6.19688C16.6055 6.27981 16.4844 6.33547 16.3422 6.3609C16.2168 6.38596 16.0764 6.39168 15.922 6.38043C15.9154 6.38007 15.9082 6.37951 15.9014 6.37896L15.8871 6.37767L15.8861 6.3776C15.8814 6.37725 15.8763 6.37689 15.8715 6.3762L15.853 6.37454C15.6669 6.35242 15.4693 6.31446 15.2549 6.25843C15.0393 6.20443 14.8474 6.14343 14.6791 6.0758C14.5078 6.00447 14.3695 5.92412 14.2621 5.83105C14.1528 5.74149 14.0754 5.63736 14.0315 5.51701C14.0066 5.45417 13.9943 5.3869 13.9944 5.31466C13.9944 5.25089 14.0041 5.18326 14.0235 5.11101C14.0596 4.96192 14.1256 4.84692 14.2234 4.76399ZM15.1437 6.06214C15.1872 6.08757 15.2342 6.11061 15.2875 6.12296C15.3363 6.13567 15.3841 6.14083 15.4325 6.14083H15.4531C15.5082 6.13918 15.5609 6.11982 15.6134 6.08168C15.6646 6.04942 15.7113 5.99119 15.7542 5.91397C15.7984 5.83214 15.8405 5.72525 15.8765 5.5839C15.9095 5.45673 15.9245 5.34837 15.9247 5.26267C15.9247 5.25382 15.9247 5.24535 15.9243 5.23687C15.9236 5.1438 15.9095 5.07266 15.8819 5.01682C15.8543 4.96043 15.8183 4.92044 15.768 4.89169C15.7228 4.86644 15.6709 4.8469 15.615 4.83179C15.6105 4.8305 15.6062 4.82939 15.6017 4.82847C15.6013 4.82836 15.6009 4.82826 15.6005 4.82818C15.5997 4.82797 15.5989 4.82781 15.5983 4.82755L15.594 4.82663C15.5926 4.82626 15.5912 4.82608 15.5897 4.82589L15.5897 4.82589L15.584 4.82442L15.5813 4.82387C15.5406 4.81557 15.5007 4.81189 15.4604 4.81373C15.4061 4.81649 15.3576 4.83492 15.3074 4.86975C15.2573 4.9068 15.2121 4.96356 15.1652 5.0441C15.1235 5.12205 15.0828 5.23116 15.0468 5.37233C15.0117 5.51018 14.9943 5.62039 14.9941 5.71069V5.71935C14.9992 5.8091 15.0088 5.88264 15.037 5.93608C15.064 5.99303 15.0977 6.03523 15.1437 6.06214Z" fill="url(#paint6_linear_1291_16536)"/>
<path fill-rule="evenodd" clip-rule="evenodd" d="M15.1264 5.98057C15.1691 6.00562 15.2165 6.02796 15.2682 6.04021C15.3233 6.05445 15.3767 6.05841 15.4304 6.05697C15.4855 6.05607 15.5374 6.03697 15.5891 6.00057C15.6396 5.96832 15.6858 5.91137 15.728 5.83587C15.7716 5.75568 15.8122 5.65225 15.8488 5.51313C15.8844 5.37582 15.8989 5.26067 15.8956 5.17382C15.8949 5.083 15.8811 5.01254 15.8537 4.95884C15.8267 4.90334 15.7903 4.86369 15.7425 4.83721C15.697 4.81144 15.6459 4.79234 15.5918 4.77846C15.539 4.76422 15.4888 4.75774 15.4384 4.76026C15.385 4.7626 15.3372 4.78098 15.2876 4.81486C15.2382 4.85108 15.1937 4.90658 15.1474 4.98533C15.1063 5.06137 15.0664 5.16823 15.0308 5.30734C14.9951 5.4452 14.978 5.55548 14.9789 5.64558C14.984 5.73334 14.9935 5.80524 15.0212 5.85731C15.0479 5.91299 15.0809 5.95336 15.1264 5.98057ZM15.3905 4.93575C15.4345 4.90079 15.4774 4.88421 15.5206 4.88097C15.5674 4.88097 15.6112 4.88511 15.6574 4.89682C15.6813 4.90186 15.7018 4.90951 15.7238 4.91775C15.7301 4.92011 15.7365 4.92252 15.7432 4.92493C15.7692 4.93719 15.7937 4.95052 15.8138 4.9662C15.8389 5.01756 15.847 5.08369 15.847 5.17055C15.8454 5.25416 15.8283 5.36426 15.7937 5.49923C15.7603 5.63654 15.722 5.73637 15.6818 5.8144C15.6419 5.8872 15.6024 5.94432 15.5552 5.9773C15.5113 6.01117 15.4652 6.02937 15.42 6.03118C15.3695 6.0319 15.3243 6.02793 15.2756 6.0146C15.2481 6.00811 15.2204 5.9982 15.196 5.98901C15.1725 5.98 15.1524 5.96666 15.1347 5.95171C15.112 5.90215 15.0991 5.83584 15.1014 5.74808C15.1014 5.66465 15.1215 5.55275 15.1565 5.41399C15.1914 5.27812 15.2278 5.17307 15.2682 5.09612C15.3081 5.0226 15.3499 4.96944 15.3905 4.93575Z" fill="#FFFFF7"/>
<path fill-rule="evenodd" clip-rule="evenodd" d="M15.6323 4.61949C15.415 4.56651 15.2148 4.52758 15.0307 4.50686C14.8477 4.48794 14.6831 4.49118 14.5356 4.52182C14.3919 4.54993 14.2694 4.60309 14.1709 4.68562C14.0725 4.77013 14.0046 4.88834 13.9665 5.03737C13.9334 5.16567 13.929 5.28154 13.959 5.38497C13.9885 5.48841 14.0402 5.58265 14.1165 5.66878C14.212 5.80934 14.3622 5.93115 14.567 6.03531C14.7744 6.13478 15.0186 6.22073 15.3005 6.29101C15.5156 6.34651 15.7165 6.38363 15.9038 6.40526C16.0902 6.42598 16.2597 6.42076 16.4064 6.39445C16.5547 6.36543 16.6763 6.30921 16.7759 6.22812C16.8749 6.14541 16.9438 6.02792 16.9821 5.87475C17.0135 5.74987 17.0177 5.63491 16.99 5.52985C16.9633 5.42714 16.9083 5.33361 16.8287 5.24586C16.7314 5.10296 16.579 4.97862 16.3692 4.87933C16.1591 4.77752 15.9134 4.69066 15.6323 4.61949ZM15.0422 4.53425C15.2205 4.55569 15.4143 4.59137 15.6258 4.64507C15.8389 4.69895 16.0272 4.75859 16.1988 4.82545C16.3649 4.89591 16.5046 4.97519 16.6156 5.06385C16.7265 5.15395 16.8054 5.25901 16.8481 5.37506C16.891 5.49164 16.8954 5.62157 16.858 5.76789C16.8198 5.91782 16.7542 6.03116 16.6592 6.11153C16.5669 6.19424 16.4477 6.24794 16.3076 6.27281C16.1658 6.3002 16.0045 6.30506 15.8253 6.28596C15.6419 6.2638 15.4474 6.22722 15.2359 6.1728C15.0235 6.11964 14.8355 6.06017 14.6685 5.99386C14.5006 5.92448 14.3635 5.84574 14.2576 5.75492C14.1497 5.66716 14.0736 5.56535 14.0304 5.44786C13.9852 5.33199 13.9809 5.20116 14.0215 5.0507C14.0581 4.9042 14.123 4.79229 14.2187 4.71138C14.3128 4.63029 14.4284 4.57479 14.5663 4.54668C14.7015 4.52181 14.8599 4.51533 15.0422 4.53425Z" fill="#FFFFF7"/>
<path d="M27.8863 24.1301L1.95789 19.1358L5.45912 1.40155L31.3867 6.39451" fill="#2A55E5"/>
<path d="M31.0891 6.63367L5.64486 1.73496L2.25537 18.898L27.7006 23.7949" fill="#FAFAFA"/>
<path d="M29.4824 7.41633L6.45518 2.98362L3.6311 17.2858L26.6583 21.7189" fill="#2A55E5"/>
<mask id="mask0_1291_16536" style="mask-type:luminance" maskUnits="userSpaceOnUse" x="4" y="5" width="25" height="15">
<path fill-rule="evenodd" clip-rule="evenodd" d="M4.91913 19.422L28.2398 19.422V5.41544L4.91913 5.41544L4.91913 19.422Z" fill="white"/>
</mask>
<g mask="url(#mask0_1291_16536)">
<mask id="mask1_1291_16536" style="mask-type:luminance" maskUnits="userSpaceOnUse" x="4" y="5" width="25" height="15">
<path fill-rule="evenodd" clip-rule="evenodd" d="M4.91913 5.41547L28.2394 5.41547V19.4227L4.91913 19.4227L4.91913 5.41547Z" fill="white"/>
</mask>
<g mask="url(#mask1_1291_16536)">
<mask id="mask2_1291_16536" style="mask-type:luminance" maskUnits="userSpaceOnUse" x="4" y="5" width="25" height="15">
<path fill-rule="evenodd" clip-rule="evenodd" d="M4.91913 19.422L28.2389 19.422V5.41542L4.91913 5.41542L4.91913 19.422Z" fill="white"/>
</mask>
<g mask="url(#mask2_1291_16536)">
<path d="M28.226 10.0419C28.2884 9.72758 28.1217 9.42904 27.8563 9.37784L7.28593 5.42367C7.01953 5.37158 6.75189 5.58767 6.68969 5.89951L4.93232 14.7972C4.86977 15.11 5.03575 15.4083 5.3011 15.4597L25.8724 19.4148C26.1395 19.4669 26.4064 19.2517 26.4679 18.9382" fill="#112AB8"/>
</g>
</g>
</g>
<path d="M32.394 5.25579C32.3962 5.27143 32.4005 5.28672 32.4005 5.30327C32.4005 5.88072 31.2871 6.46454 30.4608 6.51548L4.13034 6.47109C3.33848 6.48547 2.792 6.67013 2.40682 6.94994V6.95085C1.60861 7.52557 1.50249 8.50545 1.38702 9.20716V9.82391C1.38702 8.95574 1.53739 8.01515 2.40682 7.49537C2.80857 7.24976 3.36351 7.12987 4.1321 7.11786L29.956 7.15043C30.8874 7.11295 31.7124 6.8748 32.2919 6.51712C32.6504 6.29662 32.9121 6.02918 33.0432 5.73281C33.1038 5.59491 33.141 5.44864 33.141 5.30072C33.141 5.2849 33.1403 5.27071 33.1403 5.25579H32.394Z" fill="url(#paint7_linear_1291_16536)"/>
<path d="M32.2919 6.46052C31.778 6.77638 31.0688 6.99694 30.2625 7.06896L4.13035 7.0251C3.36281 7.03737 2.80858 7.18754 2.40683 7.43102C1.5374 7.94668 1.38703 8.87981 1.38703 9.74111L1.37628 30.3406L1.37628 30.9505C1.38457 31.822 2.10662 33.0362 3.32227 33.1349L31.2857 33.166C32.1923 33.1349 33.0326 32.7041 33.1039 31.637V31.0257L33.1151 7.8521L33.1314 5.40809C33.0043 5.85823 32.6505 6.24177 32.2919 6.46052Z" fill="url(#paint8_linear_1291_16536)"/>
<mask id="mask3_1291_16536" style="mask-type:luminance" maskUnits="userSpaceOnUse" x="1" y="6" width="33" height="27">
<path fill-rule="evenodd" clip-rule="evenodd" d="M1.87378 32.5594L33.2099 32.5594V6.60005L1.87378 6.60005L1.87378 32.5594Z" fill="white"/>
</mask>
<g mask="url(#mask3_1291_16536)">
<mask id="mask4_1291_16536" style="mask-type:luminance" maskUnits="userSpaceOnUse" x="1" y="6" width="33" height="27">
<path fill-rule="evenodd" clip-rule="evenodd" d="M1.46674 6.42596L33.3561 6.42596V32.9839L1.46674 32.9839L1.46674 6.42596Z" fill="white"/>
</mask>
<g mask="url(#mask4_1291_16536)">
<g opacity="0.800003">
<path d="M32.6505 31.767C32.5384 31.7672 32.2581 31.9486 32.1446 32.0013C32.0343 32.0539 31.9594 32.1481 31.9591 32.2287C31.9589 32.2427 31.9608 32.2566 31.9654 32.2694C31.9658 32.2701 31.9661 32.271 31.9663 32.2717C31.9857 32.3208 32.0388 32.3476 32.1058 32.3491C32.1079 32.3494 32.1102 32.3494 32.1123 32.3494C32.1137 32.3494 32.1151 32.3494 32.1167 32.3491C32.1543 32.3487 32.1952 32.3406 32.2371 32.3244C32.2417 32.3227 32.2459 32.3208 32.2503 32.319C32.2516 32.3184 32.2523 32.3181 32.2533 32.3175C32.2562 32.3164 32.259 32.315 32.2618 32.3136L32.5894 32.1144C32.6683 32.0526 32.7164 31.945 32.7162 31.8641C32.7162 31.8285 32.7068 31.798 32.6869 31.7785C32.6828 31.7748 32.6777 31.7717 32.6717 31.7697C32.6655 31.7679 32.6585 31.767 32.6507 31.767H32.6505Z" fill="url(#paint9_linear_1291_16536)"/>
<path d="M30.9059 32.2267H30.9022H30.899C30.7576 32.228 30.6426 32.3004 30.6418 32.3898C30.6418 32.4808 30.7608 32.5581 30.905 32.5593L31.227 32.5512C31.3693 32.5512 31.4826 32.4788 31.4826 32.391C31.4826 32.3891 31.4826 32.3867 31.4823 32.3847C31.4766 32.2928 31.3532 32.2186 31.2081 32.2186L30.9059 32.2267Z" fill="url(#paint10_linear_1291_16536)"/>
<path d="M29.6552 32.2224H29.6533C29.5097 32.2224 29.3911 32.2965 29.3911 32.388C29.3911 32.4807 29.5092 32.5547 29.6536 32.5547H29.9673C30.1113 32.5547 30.2314 32.4807 30.2314 32.3891C30.2314 32.2981 30.1122 32.2224 29.9673 32.2224H29.6552Z" fill="url(#paint11_linear_1291_16536)"/>
<path d="M28.4043 32.2219H28.3989C28.3374 32.2219 28.2811 32.2358 28.2366 32.2588C28.1909 32.2824 28.1579 32.316 28.1454 32.354C28.1418 32.3646 28.1401 32.3758 28.1399 32.3871C28.1392 32.4785 28.2576 32.5547 28.4027 32.5547H28.7155C28.8615 32.5547 28.9791 32.4807 28.9798 32.3871C28.9807 32.2961 28.8624 32.2219 28.7171 32.2219H28.4043Z" fill="url(#paint12_linear_1291_16536)"/>
<path d="M27.1542 32.22H27.1501C27.0958 32.22 27.0451 32.2307 27.0033 32.2491C26.9388 32.2773 26.895 32.3233 26.8898 32.375C26.8896 32.377 26.8894 32.379 26.8894 32.381C26.8892 32.3826 26.8892 32.384 26.8892 32.3855C26.8885 32.4765 27.0059 32.5525 27.1521 32.5525H27.4642H27.4661C27.47 32.5525 27.4739 32.5525 27.4778 32.5523C27.6172 32.5485 27.7283 32.4756 27.729 32.3871V32.3849C27.7281 32.2937 27.6103 32.22 27.4663 32.22H27.1542Z" fill="url(#paint13_linear_1291_16536)"/>
<path d="M25.9037 32.2184C25.7577 32.2184 25.6385 32.2926 25.6368 32.3849C25.6368 32.4759 25.7547 32.551 25.9014 32.551H26.2123C26.3575 32.551 26.4765 32.4764 26.4765 32.3849V32.3829C26.4758 32.2937 26.3595 32.2184 26.2151 32.2184H25.9037Z" fill="url(#paint14_linear_1291_16536)"/>
<path d="M24.653 32.2165C24.5079 32.2165 24.3877 32.2926 24.3871 32.3828V32.385C24.3879 32.4762 24.5056 32.5492 24.6489 32.5492H24.9616C25.1068 32.5492 25.2269 32.4749 25.2269 32.3845V32.3823C25.2265 32.2915 25.109 32.2178 24.9649 32.2165H24.653Z" fill="url(#paint15_linear_1291_16536)"/>
<path d="M23.4023 32.216C23.2559 32.216 23.1368 32.2906 23.1352 32.3825C23.1345 32.4732 23.2529 32.5487 23.3972 32.5487H23.7103C23.8542 32.5487 23.9749 32.4732 23.976 32.3831V32.3809C23.9758 32.2903 23.8581 32.216 23.7131 32.216H23.4023Z" fill="url(#paint16_linear_1291_16536)"/>
<path d="M22.1503 32.2144C22.0052 32.2144 21.8867 32.2896 21.8843 32.3809C21.8839 32.4721 22.0013 32.5474 22.1454 32.5474H22.4583C22.6042 32.5474 22.7237 32.4732 22.7237 32.3809V32.3788C22.724 32.2883 22.6063 32.2144 22.4633 32.2144H22.1503Z" fill="url(#paint17_linear_1291_16536)"/>
<path d="M20.8972 32.2126C20.8231 32.2126 20.7551 32.233 20.7066 32.2653C20.7048 32.2663 20.703 32.2678 20.7013 32.2692C20.6714 32.2901 20.6501 32.3155 20.6396 32.3435C20.6396 32.3436 20.6395 32.344 20.6395 32.3442C20.6389 32.3458 20.6382 32.3476 20.6377 32.3494C20.6349 32.359 20.6333 32.3685 20.6331 32.3784V32.3806C20.6333 32.471 20.7507 32.5453 20.8946 32.5453L21.207 32.5462C21.3528 32.5462 21.472 32.4721 21.4736 32.3797V32.3775C21.4734 32.2876 21.3567 32.2135 21.2134 32.2135L20.899 32.2126H20.8972Z" fill="url(#paint18_linear_1291_16536)"/>
<path d="M19.6481 32.2121C19.5048 32.2121 19.3847 32.2874 19.3823 32.3784V32.3806C19.3826 32.4698 19.4998 32.5446 19.6432 32.5446L19.9558 32.5453C20.1011 32.5453 20.2206 32.47 20.2222 32.3784V32.3764C20.2229 32.2862 20.105 32.2121 19.9618 32.2121H19.6481Z" fill="url(#paint19_linear_1291_16536)"/>
<path d="M18.3997 32.2113C18.2541 32.2113 18.133 32.2856 18.1312 32.3775V32.3796C18.1314 32.469 18.2484 32.5427 18.3914 32.5427L18.7046 32.544C18.8502 32.544 18.9704 32.4685 18.9722 32.3775C18.9727 32.2856 18.8562 32.2113 18.7111 32.2113H18.3997Z" fill="url(#paint20_linear_1291_16536)"/>
<path d="M16.8805 32.3757V32.3777C16.8805 32.4671 16.9966 32.542 17.1409 32.542L17.4539 32.5428C17.599 32.5428 17.7179 32.468 17.7202 32.3766V32.3744C17.7201 32.2834 17.6039 32.2099 17.4604 32.2099L17.1483 32.2096C17.0028 32.2096 16.8821 32.2842 16.8805 32.3757" fill="url(#paint21_linear_1291_16536)"/>
<path d="M15.8972 32.2089C15.7514 32.2089 15.6316 32.282 15.6291 32.3745V32.3766C15.6294 32.4666 15.746 32.5403 15.89 32.5403L16.2019 32.5406H16.2039C16.2085 32.5406 16.2129 32.5406 16.2173 32.5404C16.3564 32.5359 16.4674 32.4626 16.4695 32.375V32.3729C16.4692 32.281 16.3543 32.2089 16.2092 32.2089H15.8972Z" fill="url(#paint22_linear_1291_16536)"/>
<path d="M14.6475 32.2072C14.5008 32.2072 14.3807 32.2815 14.379 32.3725V32.3748C14.3784 32.4658 14.4928 32.5386 14.6386 32.5402H14.9506C15.0957 32.5402 15.2155 32.4654 15.2182 32.3744C15.2184 32.3734 15.2184 32.3728 15.2184 32.3719C15.2187 32.2802 15.1026 32.2072 14.958 32.2072H14.6475Z" fill="url(#paint23_linear_1291_16536)"/>
<path d="M13.3952 32.2058H13.392C13.2488 32.2058 13.1306 32.2806 13.1276 32.3716V32.3736C13.1267 32.4637 13.2428 32.5379 13.386 32.5379H13.699C13.845 32.5379 13.9648 32.4633 13.9675 32.3725V32.3703C13.968 32.2802 13.8512 32.2058 13.7078 32.2058H13.3952Z" fill="url(#paint24_linear_1291_16536)"/>
<path d="M12.145 32.2047C11.9981 32.2047 11.8792 32.278 11.876 32.371V32.373C11.8753 32.4629 11.9914 32.537 12.1355 32.537H12.4481C12.5925 32.537 12.714 32.4624 12.7166 32.3716V32.3694C12.7164 32.2788 12.6004 32.2047 12.458 32.2047H12.145Z" fill="url(#paint25_linear_1291_16536)"/>
<path d="M10.8934 32.2027C10.7501 32.2027 10.6274 32.2766 10.6244 32.3691V32.3712C10.6237 32.4617 10.7397 32.5352 10.8837 32.5352H11.1967C11.3418 32.5352 11.4627 32.4613 11.4643 32.3703C11.4645 32.3689 11.4645 32.3674 11.4645 32.366C11.4645 32.2757 11.3499 32.2027 11.2064 32.2027H10.8934Z" fill="url(#paint26_linear_1291_16536)"/>
<path d="M9.37438 32.3676C9.37421 32.3683 9.37421 32.3691 9.37421 32.3698C9.37368 32.4604 9.48948 32.5347 9.63229 32.5347L9.94492 32.5352C10.0902 32.5352 10.2108 32.4593 10.2148 32.3691V32.3669C10.2157 32.2754 10.0996 32.2027 9.95551 32.2027L9.64235 32.2015C9.49831 32.2015 9.37756 32.2759 9.37438 32.3676Z" fill="url(#paint27_linear_1291_16536)"/>
<path d="M8.39188 32.2008C8.24748 32.2008 8.12585 32.2745 8.1225 32.3669V32.3691C8.12197 32.4592 8.23759 32.5322 8.3804 32.5322H8.69374H8.69904H8.70239C8.84361 32.5307 8.961 32.4565 8.96259 32.3669V32.3626C8.96206 32.2736 8.84767 32.2015 8.70433 32.2008H8.39188Z" fill="url(#paint28_linear_1291_16536)"/>
<path d="M7.14185 32.1986C6.99692 32.1986 6.87512 32.2739 6.87177 32.3644V32.3665C6.87124 32.4572 6.98633 32.5311 7.13126 32.5311L7.44283 32.5322C7.58758 32.5322 7.70921 32.4574 7.71168 32.3653C7.71168 32.364 7.71168 32.3626 7.71168 32.3611C7.7115 32.2723 7.59676 32.1991 7.45395 32.1986H7.14185Z" fill="url(#paint29_linear_1291_16536)"/>
<path d="M5.89118 32.1973C5.7459 32.1973 5.62533 32.2714 5.6211 32.3644V32.3685C5.62057 32.4568 5.73513 32.53 5.879 32.53L6.19092 32.5305C6.33603 32.5305 6.45677 32.4557 6.46013 32.3644V32.3602C6.46048 32.2716 6.34591 32.1979 6.20346 32.1973H5.89118Z" fill="url(#paint30_linear_1291_16536)"/>
<path d="M4.641 32.1973H4.63924C4.49308 32.1973 4.37286 32.2712 4.36968 32.3629C4.36951 32.3642 4.36951 32.3654 4.36951 32.3671C4.36986 32.4555 4.48443 32.528 4.62724 32.528L4.93934 32.53C5.08444 32.53 5.20677 32.4545 5.21013 32.3635V32.3591C5.21083 32.2692 5.09591 32.1973 4.9524 32.1973H4.641Z" fill="url(#paint31_linear_1291_16536)"/>
<path d="M3.15043 32.1119C3.14125 32.1279 3.13684 32.1454 3.13684 32.1634C3.13684 32.2341 3.20445 32.3128 3.3109 32.3568L3.69272 32.4752C3.69555 32.4757 3.69837 32.4763 3.7012 32.4768C3.71514 32.4793 3.72891 32.4811 3.7425 32.4822C3.75133 32.4829 3.75998 32.4833 3.76863 32.4833H3.77092H3.77587C3.87878 32.4819 3.95522 32.435 3.95857 32.3629C3.95875 32.362 3.95875 32.3613 3.95857 32.3606C3.95645 32.2676 3.60234 32.118 3.47207 32.0645C3.4237 32.045 3.37321 32.0359 3.32696 32.0359C3.24752 32.0359 3.17903 32.0629 3.15043 32.1119Z" fill="url(#paint32_linear_1291_16536)"/>
<path d="M2.33367 31.1925C2.32096 31.1943 2.3086 31.1985 2.29748 31.2046C2.25529 31.2266 2.23428 31.2724 2.23481 31.3282C2.23552 31.3809 2.25511 31.4421 2.2943 31.5009L2.52379 31.8034C2.5259 31.8056 2.52785 31.8076 2.52961 31.8095C2.58469 31.8652 2.64841 31.8982 2.7042 31.9052C2.71126 31.906 2.71832 31.9063 2.72503 31.9063H2.72838C2.76121 31.9058 2.78999 31.895 2.811 31.8733C2.81223 31.8723 2.81329 31.8712 2.81417 31.8699C2.82176 31.8613 2.82512 31.8485 2.82529 31.8324C2.82565 31.7202 2.66059 31.4515 2.59104 31.3454C2.58522 31.3365 2.57904 31.3279 2.57268 31.3196C2.5109 31.2398 2.42617 31.1907 2.35591 31.1907C2.34832 31.1907 2.3409 31.1913 2.33367 31.1925Z" fill="url(#paint33_linear_1291_16536)"/>
<path d="M1.87378 30.249L1.93786 30.6141C1.93804 30.6161 1.93839 30.6182 1.93856 30.6199C1.93998 30.6267 1.94121 30.6332 1.9428 30.6397C1.94421 30.6463 1.94598 30.6532 1.94792 30.6599C1.97352 30.7496 2.02824 30.8132 2.08808 30.8255C2.0955 30.8271 2.10256 30.8278 2.1098 30.8278H2.11121C2.12056 30.8278 2.13027 30.8262 2.13963 30.8235C2.21183 30.8002 2.26214 30.702 2.26196 30.5903C2.26196 30.5696 2.26002 30.5483 2.25631 30.5272C2.23425 30.3917 2.20689 30.249 2.20689 30.249C2.20689 30.2456 2.20706 30.2423 2.20706 30.2389C2.20671 30.1007 2.13363 29.9877 2.04289 29.9877C1.95163 29.9877 1.87431 30.1061 1.87378 30.249Z" fill="url(#paint34_linear_1291_16536)"/>
<path d="M1.87714 28.993V29.313C1.87714 29.457 1.95181 29.5749 2.04308 29.5749H2.04432C2.04838 29.5749 2.05279 29.5745 2.05686 29.5742C2.14318 29.5637 2.21098 29.4498 2.21098 29.313L2.21274 28.993C2.21274 28.8498 2.13736 28.7319 2.04485 28.7319C1.95181 28.7319 1.87714 28.8498 1.87714 28.993" fill="url(#paint35_linear_1291_16536)"/>
<path d="M2.04399 27.4752C2.0424 27.4752 2.04099 27.4752 2.0394 27.4754C1.95043 27.4791 1.87787 27.5957 1.87787 27.7372V28.0561C1.87787 28.2005 1.95343 28.3178 2.04488 28.3178C2.13738 28.3178 2.21277 28.2005 2.21277 28.0561V27.7372C2.21277 27.593 2.13738 27.4752 2.04488 27.4752H2.04399Z" fill="url(#paint36_linear_1291_16536)"/>
<path d="M1.87787 26.4809V26.7991C1.87787 26.9442 1.95343 27.0617 2.04488 27.0617C2.13738 27.0617 2.21277 26.9442 2.21277 26.7991V26.4809C2.21277 26.336 2.13738 26.2181 2.04488 26.2181C1.95396 26.2181 1.87963 26.336 1.87787 26.4809Z" fill="url(#paint37_linear_1291_16536)"/>
<path d="M1.87946 25.2227V25.5433C1.87946 25.6867 1.95378 25.8047 2.04629 25.8047C2.13721 25.8047 2.21347 25.6874 2.21347 25.5433V25.224C2.21347 25.0796 2.13791 24.9625 2.04629 24.9612C1.95378 24.9612 1.87946 25.0796 1.87946 25.2227Z" fill="url(#paint38_linear_1291_16536)"/>
<path d="M1.87946 23.966V24.2855C1.87946 24.4304 1.95378 24.5477 2.04629 24.5477C2.13791 24.5477 2.21347 24.4304 2.21347 24.2855V23.966V23.9626C2.21294 23.8211 2.13879 23.7049 2.04629 23.7049C1.95484 23.7049 1.87946 23.8231 1.87946 23.966Z" fill="url(#paint39_linear_1291_16536)"/>
<path d="M1.87994 22.7089V23.0293V23.0326C1.88047 23.1758 1.9555 23.2915 2.04625 23.2915C2.13964 23.2915 2.21467 23.174 2.21467 23.0293V22.7107C2.21467 22.5653 2.14017 22.4475 2.04801 22.4475C1.95621 22.4475 1.87994 22.5642 1.87994 22.7089" fill="url(#paint40_linear_1291_16536)"/>
<path d="M1.87994 21.4522V21.7724C1.87994 21.917 1.95621 22.0345 2.04801 22.0345C2.14017 22.0345 2.21467 21.917 2.21573 21.7724V21.453C2.21573 21.3093 2.14017 21.1908 2.04801 21.1908C1.95621 21.1908 1.87994 21.3081 1.87994 21.4522Z" fill="url(#paint41_linear_1291_16536)"/>
<path d="M1.88104 20.1964V20.5156C1.88104 20.6597 1.95625 20.7779 2.04805 20.7779C2.14109 20.7779 2.21576 20.6597 2.21576 20.5156V20.1964C2.21576 20.051 2.14109 19.9337 2.04876 19.9337C1.95625 19.9337 1.88104 20.051 1.88104 20.1964Z" fill="url(#paint42_linear_1291_16536)"/>
<path d="M1.88171 18.9383V19.2587C1.88171 19.4032 1.95727 19.5216 2.04872 19.5216C2.14105 19.5216 2.21573 19.4032 2.2175 19.2587V18.939C2.2175 18.7959 2.14194 18.6775 2.04872 18.6775C1.95727 18.6775 1.88277 18.795 1.88171 18.9383Z" fill="url(#paint43_linear_1291_16536)"/>
<path d="M1.88281 17.6821V18.0021C1.88281 18.1465 1.95731 18.2638 2.05053 18.2638C2.14197 18.2638 2.21753 18.1465 2.21753 18.0021V17.6821C2.21753 17.5385 2.14197 17.4204 2.05053 17.4204C1.95731 17.4204 1.88281 17.5372 1.88281 17.6821Z" fill="url(#paint44_linear_1291_16536)"/>
<path d="M1.88334 16.4259L1.88281 16.7453C1.88281 16.8901 1.95731 17.0071 2.05053 17.0071C2.14286 17.0071 2.21753 16.8901 2.21753 16.7453L2.21912 16.4259C2.21912 16.2829 2.14286 16.1645 2.05194 16.1645C1.95961 16.1645 1.88334 16.2829 1.88334 16.4259Z" fill="url(#paint45_linear_1291_16536)"/>
<path d="M1.88336 15.169V15.4883C1.88336 15.6332 1.95963 15.7516 2.05196 15.7516C2.14288 15.7516 2.21914 15.6332 2.21914 15.4883V15.169C2.21914 15.0252 2.14358 14.9068 2.05196 14.9068C1.95963 14.9068 1.88442 15.0252 1.88336 15.169Z" fill="url(#paint46_linear_1291_16536)"/>
<path d="M1.8844 13.913V14.2315C1.8844 14.3756 1.95961 14.4938 2.05194 14.4938H2.053C2.05529 14.4938 2.05741 14.4936 2.05935 14.4936C2.1478 14.4882 2.21912 14.3724 2.21965 14.2315V13.913C2.21965 13.7673 2.14462 13.6505 2.05194 13.6505C1.95961 13.6505 1.8844 13.7673 1.8844 13.913Z" fill="url(#paint47_linear_1291_16536)"/>
<path d="M1.88489 12.6551V12.9755V12.9789C1.88542 13.1213 1.96098 13.2379 2.0519 13.2379C2.14458 13.2379 2.21961 13.1195 2.21961 12.9755V12.6551C2.21961 12.512 2.14458 12.3929 2.0519 12.3929C1.96115 12.3929 1.88489 12.512 1.88489 12.6551Z" fill="url(#paint48_linear_1291_16536)"/>
<path d="M1.88595 11.3991L1.88489 11.7184C1.88489 11.8626 1.96115 11.9801 2.0519 11.9801C2.14458 11.9801 2.21961 11.8626 2.21961 11.7184V11.3991C2.21961 11.2542 2.14511 11.136 2.05348 11.136C1.96115 11.136 1.88595 11.2542 1.88595 11.3991Z" fill="url(#paint49_linear_1291_16536)"/>
<path d="M1.898 10.1263L1.88281 10.4615C1.8844 10.6055 1.9612 10.7237 2.05353 10.7237C2.14515 10.7237 2.21965 10.6055 2.21912 10.4615L2.2313 10.1561C2.23166 10.1505 2.23183 10.1449 2.23183 10.1393C2.23219 10.0026 2.16228 9.88777 2.07401 9.87984C2.07118 9.87966 2.068 9.87948 2.06518 9.87948C1.97726 9.87948 1.90347 9.98778 1.898 10.1263Z" fill="url(#paint50_linear_1291_16536)"/>
<path d="M2.12671 8.78926L2.02044 9.15669C2.01815 9.17435 2.01709 9.19183 2.01709 9.20877C2.01709 9.32752 2.07305 9.42122 2.15231 9.42717H2.15496C2.15937 9.42717 2.16414 9.42627 2.1689 9.42465C2.19679 9.41456 2.22786 9.37599 2.25893 9.32392C2.26264 9.31725 2.26652 9.31058 2.27041 9.30355C2.28064 9.28517 2.29106 9.26535 2.30094 9.24499C2.302 9.24319 2.30271 9.24138 2.30359 9.23976C2.33148 9.18174 2.35796 9.11849 2.38021 9.06155C2.38621 9.04659 2.39168 9.03235 2.3968 9.01848C2.40933 8.98532 2.4201 8.95595 2.42822 8.93306C2.4434 8.88892 2.45046 8.84387 2.45029 8.80188C2.44976 8.71592 2.41886 8.64258 2.36326 8.61537C2.34843 8.60835 2.33307 8.60492 2.31719 8.60492C2.24499 8.60492 2.16643 8.67754 2.12671 8.78926Z" fill="url(#paint51_linear_1291_16536)"/>
<path d="M3.13174 7.89152L2.79139 8.06848C2.70242 8.12452 2.65017 8.20399 2.6507 8.27084C2.65105 8.29607 2.65847 8.31932 2.67453 8.33914C2.67612 8.34112 2.67806 8.34328 2.67983 8.34491C2.70807 8.37392 2.75291 8.38815 2.80445 8.38815H2.80463C2.80834 8.38815 2.81222 8.38815 2.81611 8.38797C2.87048 8.38581 2.9312 8.36851 2.98698 8.33644C2.99157 8.33355 2.99599 8.33121 3.00075 8.32833C3.12114 8.25138 3.22741 8.20994 3.22741 8.20994C3.34622 8.16453 3.43024 8.07046 3.43007 7.98865C3.42989 7.97766 3.42865 7.96703 3.42548 7.95676C3.41983 7.93838 3.40959 7.92252 3.39564 7.90936C3.3651 7.88107 3.31726 7.8654 3.26166 7.8654C3.22088 7.8654 3.17622 7.87386 3.13174 7.89152Z" fill="url(#paint52_linear_1291_16536)"/>
<path d="M4.42795 7.605L4.07701 7.64752C3.94603 7.66608 3.84912 7.74321 3.84841 7.82412C3.84823 7.83151 3.84912 7.83908 3.85088 7.84682C3.85124 7.84917 3.85194 7.85151 3.85282 7.85385C3.85353 7.85728 3.85459 7.86052 3.85582 7.86376C3.85653 7.86538 3.85724 7.86701 3.85777 7.86845C3.88636 7.93332 3.97604 7.97621 4.0809 7.97765C4.08301 7.97765 4.0846 7.97783 4.08655 7.97783C4.08796 7.97783 4.08919 7.97765 4.09025 7.97765C4.10879 7.97747 4.12803 7.97603 4.14727 7.97314L4.43536 7.93782C4.57994 7.92954 4.69609 7.84791 4.69627 7.75781V7.75564C4.69309 7.66951 4.58718 7.60428 4.4539 7.60428C4.44525 7.60428 4.43677 7.60446 4.42795 7.605Z" fill="url(#paint53_linear_1291_16536)"/>
<path d="M5.11041 7.75224C5.11041 7.84414 5.22974 7.91874 5.37397 7.91874L5.69683 7.92036C5.84176 7.92036 5.96021 7.84486 5.96021 7.75332C5.96021 7.66214 5.84176 7.58772 5.69683 7.58772L5.37467 7.58682C5.22974 7.58682 5.11041 7.66124 5.11041 7.75224" fill="url(#paint54_linear_1291_16536)"/>
<path d="M6.63876 7.58949H6.63576C6.50036 7.58949 6.38862 7.6549 6.37697 7.73996V7.74014C6.37609 7.745 6.37573 7.74987 6.37573 7.75491C6.37573 7.84591 6.49436 7.92142 6.63876 7.92142H6.95951C7.10532 7.92142 7.22377 7.84681 7.22377 7.75635C7.22377 7.66463 7.10638 7.58949 6.96145 7.58949H6.63876Z" fill="url(#paint55_linear_1291_16536)"/>
<path d="M7.90287 7.59092C7.75953 7.59092 7.6402 7.66462 7.6402 7.75634C7.63967 7.84825 7.75883 7.92357 7.90287 7.92357H8.22415C8.36926 7.92357 8.48841 7.85023 8.48841 7.75815C8.48841 7.66624 8.36996 7.59092 8.22415 7.59092H7.90287Z" fill="url(#paint56_linear_1291_16536)"/>
<path d="M9.16856 7.59345C9.02239 7.59345 8.905 7.66716 8.9043 7.75888C8.9043 7.85024 9.02239 7.92538 9.16856 7.92538L9.48948 7.9261C9.63441 7.9261 9.75357 7.85096 9.75357 7.75978C9.75357 7.66788 9.63441 7.59345 9.48948 7.59345H9.16856Z" fill="url(#paint57_linear_1291_16536)"/>
<path d="M10.1686 7.76051C10.1686 7.85169 10.2853 7.92773 10.432 7.92773H10.7546H10.7571H10.7605C10.9013 7.92665 11.0177 7.85205 11.0177 7.76231C11.0177 7.66951 10.8982 7.59509 10.7546 7.59509L10.4332 7.59437C10.287 7.59437 10.1686 7.66879 10.1686 7.76051" fill="url(#paint58_linear_1291_16536)"/>
<path d="M11.433 7.76323C11.433 7.85423 11.5517 7.92955 11.6968 7.92955H12.0175C12.1621 7.92955 12.2818 7.85513 12.2818 7.76503C12.2818 7.67205 12.1639 7.5978 12.0188 7.59672L11.6968 7.596C11.5517 7.596 11.433 7.67042 11.433 7.76323" fill="url(#paint59_linear_1291_16536)"/>
<path d="M12.9614 7.59925C12.8169 7.59925 12.6979 7.67205 12.6979 7.76503C12.6979 7.85586 12.8163 7.93118 12.9614 7.93118L13.2822 7.9328C13.4268 7.9328 13.5464 7.85748 13.5464 7.7654C13.5464 7.67458 13.4273 7.59925 13.2832 7.59925H12.9614Z" fill="url(#paint60_linear_1291_16536)"/>
<path d="M13.9618 7.76645C13.9618 7.85818 14.0799 7.93278 14.2248 7.93278L14.5468 7.93422C14.6919 7.93422 14.8111 7.8598 14.8111 7.76808C14.8111 7.67726 14.6928 7.60085 14.5468 7.60085L14.2259 7.59995C14.0809 7.59995 13.9618 7.67545 13.9618 7.76645Z" fill="url(#paint61_linear_1291_16536)"/>
<path d="M15.227 7.7697V7.77168C15.2272 7.86142 15.3449 7.9353 15.489 7.93602H15.8104C15.9555 7.93602 16.0748 7.8616 16.0748 7.7697C16.0748 7.6787 15.9555 7.60427 15.8104 7.60265L15.4897 7.60175C15.3444 7.60175 15.227 7.67725 15.227 7.7697Z" fill="url(#paint62_linear_1291_16536)"/>
<path d="M16.7559 7.60501H16.7534C16.7319 7.60501 16.7111 7.60663 16.6911 7.61005C16.5764 7.62771 16.4916 7.69349 16.4916 7.77151C16.4916 7.86161 16.609 7.93784 16.7548 7.93784H17.0751C17.2203 7.93784 17.3395 7.86323 17.3395 7.77313C17.3395 7.67943 17.2212 7.60591 17.0751 7.60501H16.7559Z" fill="url(#paint63_linear_1291_16536)"/>
<path d="M17.7545 7.77314C17.7545 7.86414 17.8727 7.93947 18.0187 7.93947L18.3398 7.94037C18.4839 7.94037 18.6039 7.86577 18.6039 7.77386C18.605 7.68196 18.4849 7.60772 18.3403 7.60772L18.0187 7.607C17.8736 7.607 17.7545 7.68142 17.7545 7.77314Z" fill="url(#paint64_linear_1291_16536)"/>
<path d="M19.2834 7.60931C19.1383 7.60931 19.0197 7.68283 19.0181 7.77491C19.0181 7.86573 19.1383 7.94196 19.2834 7.94196H19.6043C19.7496 7.94196 19.8684 7.86735 19.8684 7.77635C19.8684 7.68445 19.7496 7.60931 19.6043 7.60931H19.2834Z" fill="url(#paint65_linear_1291_16536)"/>
<path d="M20.548 7.61097C20.4029 7.61097 20.2845 7.68557 20.2845 7.77711C20.2843 7.77783 20.2843 7.77873 20.2843 7.77927C20.2854 7.87027 20.4029 7.94362 20.5464 7.94362L20.8681 7.94434C21.0142 7.94434 21.1322 7.86901 21.1322 7.77891C21.1322 7.68719 21.0148 7.61097 20.869 7.61097H20.548Z" fill="url(#paint66_linear_1291_16536)"/>
<path d="M21.8107 7.61331C21.6672 7.61331 21.548 7.68719 21.548 7.77891C21.548 7.87063 21.6672 7.94595 21.8107 7.94595H22.1327C22.2781 7.94595 22.3968 7.87171 22.3968 7.78053C22.3968 7.68773 22.2799 7.61511 22.1336 7.61331H21.8107Z" fill="url(#paint67_linear_1291_16536)"/>
<path d="M23.0764 7.61506C22.9311 7.61506 22.8127 7.6893 22.8127 7.78048C22.8127 7.87166 22.9302 7.9468 23.0764 7.9468L23.3972 7.94753C23.543 7.94753 23.6614 7.87328 23.6614 7.78138C23.6614 7.6902 23.5439 7.61506 23.3972 7.61506H23.0764Z" fill="url(#paint68_linear_1291_16536)"/>
<path d="M24.0764 7.78195C24.0764 7.87385 24.1949 7.94935 24.3398 7.94935L24.6618 7.95007C24.8076 7.95007 24.9243 7.87475 24.9243 7.78465C24.9243 7.69203 24.8076 7.61761 24.6625 7.61761L24.3398 7.61652C24.1949 7.61652 24.0764 7.69203 24.0764 7.78195Z" fill="url(#paint69_linear_1291_16536)"/>
<path d="M25.605 7.61834C25.4604 7.61834 25.342 7.69276 25.342 7.7852C25.342 7.87566 25.4604 7.95153 25.6045 7.95153H25.9266C25.9273 7.95171 25.9284 7.95171 25.9293 7.95171C25.9303 7.95171 25.9316 7.95171 25.9326 7.95153C26.0742 7.95044 26.1905 7.87602 26.1905 7.7861C26.1905 7.69438 26.0723 7.61906 25.927 7.61834H25.605Z" fill="url(#paint70_linear_1291_16536)"/>
<path d="M26.8691 7.62159H26.8639C26.7213 7.62159 26.6055 7.69637 26.605 7.78701C26.605 7.8782 26.724 7.95262 26.8691 7.95262L27.1916 7.95334C27.3344 7.95334 27.4551 7.87982 27.4551 7.78792C27.4551 7.69692 27.3358 7.62159 27.1916 7.62159H26.8691Z" fill="url(#paint71_linear_1291_16536)"/>
<path d="M27.8702 7.7888C27.8702 7.8798 27.9885 7.95584 28.1337 7.95584L28.4547 7.95674C28.5998 7.95674 28.7198 7.88052 28.7198 7.79042C28.7198 7.69852 28.5998 7.62229 28.4562 7.62229L28.1343 7.62157C27.9885 7.62157 27.8702 7.6978 27.8702 7.7888Z" fill="url(#paint72_linear_1291_16536)"/>
<path d="M29.2926 7.61506C29.147 7.61506 29.0291 7.6893 29.0276 7.78048C29.0276 7.87166 29.147 7.9468 29.291 7.9468L29.613 7.94753C29.7579 7.94753 29.8766 7.87328 29.8766 7.78138V7.77922C29.876 7.68894 29.7578 7.61506 29.613 7.61506H29.2926Z" fill="url(#paint73_linear_1291_16536)"/>
<path d="M30.9156 7.57887C30.9107 7.57905 30.9059 7.57905 30.901 7.57923L30.5808 7.59256C30.439 7.59833 30.3245 7.67347 30.3237 7.76321C30.3236 7.76537 30.3237 7.76754 30.3237 7.7697C30.3276 7.85529 30.4373 7.92377 30.5723 7.92485H30.5755H30.5769C30.579 7.92485 30.5815 7.92485 30.5839 7.92467C30.5875 7.92467 30.5912 7.92449 30.5947 7.92431L30.9151 7.91206C31.0585 7.90701 31.1732 7.82916 31.1727 7.74015C31.1727 7.7387 31.1727 7.73726 31.1727 7.736C31.1688 7.64752 31.056 7.57887 30.9174 7.57887H30.9156Z" fill="url(#paint74_linear_1291_16536)"/>
<path d="M32.0228 7.25757L31.7246 7.37253C31.6081 7.41614 31.5308 7.50498 31.5303 7.58247C31.5303 7.5958 31.5324 7.60914 31.5373 7.62157C31.5379 7.62283 31.5384 7.62409 31.5389 7.62535C31.5412 7.63058 31.544 7.63563 31.547 7.64049C31.5753 7.68428 31.6339 7.70807 31.7038 7.70879H31.7075H31.7116C31.7538 7.70825 31.7998 7.69942 31.8454 7.68194L32.1446 7.56607C32.2599 7.52174 32.337 7.43362 32.3372 7.35578C32.3374 7.34226 32.3351 7.32893 32.3301 7.31631C32.3086 7.26135 32.242 7.23054 32.1608 7.23054C32.1174 7.23054 32.0699 7.23919 32.0228 7.25757Z" fill="url(#paint75_linear_1291_16536)"/>
<path d="M32.9698 6.65933L32.7024 6.83557C32.611 6.89503 32.5559 6.98171 32.555 7.05379C32.5548 7.07776 32.5603 7.1001 32.5726 7.11938C32.5748 7.12263 32.5772 7.12587 32.5799 7.12857C32.5801 7.12911 32.5802 7.12947 32.5804 7.12965C32.6057 7.15903 32.6457 7.17416 32.6927 7.17506H32.6978H32.7033C32.7472 7.17416 32.7961 7.16155 32.844 7.1374C32.8487 7.13506 32.8533 7.13272 32.8577 7.13019C32.8639 7.12695 32.8699 7.12317 32.8759 7.11956C32.8791 7.11758 32.8823 7.1156 32.8853 7.11344L33.1545 6.93702C33.1592 6.93396 33.164 6.93071 33.1684 6.92711C33.1688 6.92675 33.169 6.92657 33.1695 6.92621C33.1698 6.92585 33.1698 6.92585 33.1702 6.92567C33.184 6.9145 33.1961 6.90242 33.2096 6.89107V6.60672C33.1921 6.60221 33.173 6.59969 33.1527 6.59969C33.0957 6.59969 33.0299 6.61861 32.9698 6.65933Z" fill="url(#paint76_linear_1291_16536)"/>
</g>
</g>
</g>
<path d="M30.455 8.50124C30.4227 8.50211 30.3943 8.50299 30.3701 8.50211C30.3372 8.50159 30.3051 8.50124 30.2735 8.50124C30.156 8.50124 30.0432 8.50493 29.9236 8.50528H29.912C29.4728 8.50528 29.0308 8.5037 28.5925 8.5037C26.8869 8.5037 25.179 8.50932 23.4765 8.51336C19.9389 8.5239 16.4054 8.5037 12.8673 8.5037C11.2503 8.5037 9.63102 8.57345 8.01032 8.55816C8.00591 8.55816 8.00203 8.55781 7.99744 8.55781C7.97484 8.55763 7.95225 8.55728 7.92948 8.55711C7.90264 8.55676 7.87563 8.5564 7.8488 8.55605C7.04614 8.54569 6.24771 8.55359 5.4468 8.55359H4.0736C3.96098 8.55359 3.39609 8.52074 3.39521 8.73526C3.39503 8.75055 3.39821 8.76724 3.40404 8.78533C3.46158 8.97262 3.77121 9.06838 3.93256 9.12653C4.20564 9.22668 4.49021 9.29362 4.77494 9.35318C5.35183 9.47827 5.94125 9.5605 6.53085 9.63077C7.74818 9.77449 8.97381 9.85918 10.1986 9.91891C12.6832 10.0408 15.1717 10.0593 17.6579 10.0117C21.2837 9.93964 24.9509 9.77519 28.5314 9.1759C28.9856 9.1 29.4387 9.01444 29.8876 8.91605C30.0963 8.86914 30.3037 8.81924 30.5101 8.76513C30.5102 8.76513 30.5106 8.76513 30.5108 8.76495C30.5454 8.75634 30.9184 8.6562 30.8013 8.56097C30.7357 8.50862 30.6278 8.50053 30.5283 8.50053C30.5028 8.50053 30.4788 8.50053 30.455 8.50124Z" fill="url(#paint77_linear_1291_16536)"/>
<path fill-rule="evenodd" clip-rule="evenodd" d="M1.55829 16.9296C1.61839 16.9327 1.67841 16.9358 1.7397 16.9358C2.19532 16.9358 2.61951 16.8455 2.96886 16.6943C4.82186 16.8133 7.34054 16.983 7.60074 17.007C9.10175 17.15 10.0894 17.5492 10.8098 18.708C11.1844 19.3074 11.3613 19.9909 11.2713 20.8407C11.2695 20.9133 11.2656 20.9879 11.2557 21.0614C11.135 22.0379 10.7362 22.7834 9.85746 23.4556C8.89539 24.1929 7.26763 24.1886 5.74668 24.0711C4.68063 23.9909 3.63613 23.8643 2.58067 23.7161C1.81861 23.6077 1.50068 23.137 1.49115 22.4387C1.52504 21.1344 1.53405 19.8325 1.51781 18.5296C1.51781 18.206 1.52617 17.8826 1.53452 17.5594C1.53996 17.3492 1.54539 17.1391 1.54852 16.9291L1.55829 16.9296ZM10.6607 19.0558C10.8236 19.2625 10.947 19.4769 11.0377 19.6952C10.9387 19.4721 10.813 19.2562 10.6607 19.0558Z" fill="#A6941F"/>
<path d="M0.862777 15.7906C0.862777 16.438 0.827846 17.0835 0.827846 17.7311C0.833698 18.1767 0.836712 18.6217 0.836712 19.0671C0.836357 19.9172 0.825009 20.7676 0.80249 21.6184C0.812065 22.3133 1.13035 22.7804 1.8951 22.8886C2.95704 23.0356 4.00657 23.1607 5.07702 23.242C6.60476 23.3572 8.23872 23.3622 9.20633 22.6283C10.0874 21.9613 10.4894 21.2201 10.6108 20.2486C10.6224 20.1547 10.6282 20.0598 10.628 19.9645C10.6268 19.0436 10.087 18.0875 9.22743 17.5237C7.91547 16.6622 6.23098 16.749 4.65022 16.6541C3.96419 16.6106 3.09233 16.5357 2.41127 16.474C2.03199 16.4411 1.34702 16.4221 1.06864 16.1426C0.953208 16.0265 0.88636 15.9017 0.865969 15.7632C0.862777 15.7721 0.862777 15.7823 0.862777 15.7906Z" fill="url(#paint78_linear_1291_16536)"/>
<path d="M1.38884 14.736C1.38478 14.7375 1.37984 14.7407 1.37931 14.7432C1.3733 14.7476 1.36607 14.7524 1.3583 14.7607C1.27021 14.8409 1.11628 15.0627 1.09686 15.0941C0.947698 15.3199 0.86526 15.4633 0.861023 15.7262C0.882206 15.8662 0.950522 15.992 1.06385 16.1077C1.34259 16.3908 2.03404 16.4014 2.4111 16.4396C3.10503 16.5083 3.94636 16.5786 4.62987 16.6225C6.41773 16.7317 8.38442 16.644 9.66777 17.8895C10.3027 18.5042 10.5495 19.192 10.5492 19.905C10.5488 20.2851 10.4784 20.6722 10.3592 21.0594C10.5278 20.5148 10.606 20.0306 10.6064 19.5924C10.6069 18.9311 10.4304 18.3752 10.1207 17.8771C9.39927 16.7179 8.41284 16.3205 6.91165 16.1756C6.63204 16.1501 3.74459 15.9565 1.87941 15.8389C1.4485 15.8122 1.43438 15.5689 1.43438 15.1918C1.43438 15.1445 1.43632 15.0462 1.43632 14.9458C1.43632 14.8701 1.43526 14.7932 1.4312 14.736C1.42767 14.7328 1.41973 14.7301 1.41002 14.7301C1.40278 14.7301 1.39431 14.7317 1.38884 14.736Z" fill="url(#paint79_linear_1291_16536)"/>
<mask id="mask5_1291_16536" style="mask-type:luminance" maskUnits="userSpaceOnUse" x="0" y="16" width="11" height="7">
<path fill-rule="evenodd" clip-rule="evenodd" d="M0.942383 22.9375H10.2328V16.5607H0.942383L0.942383 22.9375Z" fill="white"/>
</mask>
<g mask="url(#mask5_1291_16536)">
<mask id="mask6_1291_16536" style="mask-type:luminance" maskUnits="userSpaceOnUse" x="0" y="16" width="11" height="8">
<path fill-rule="evenodd" clip-rule="evenodd" d="M0.684143 16.1478H10.6388V23.3625H0.684143L0.684143 16.1478Z" fill="white"/>
</mask>
<g mask="url(#mask6_1291_16536)">
<g opacity="0.800003">
<path d="M1.10662 16.5609C1.10644 16.5611 1.10644 16.5611 1.10626 16.5611C1.08232 16.5627 1.05997 16.567 1.03975 16.5738C1.03958 16.574 1.0394 16.574 1.03904 16.574C1.03851 16.5745 1.03762 16.5745 1.03692 16.5749C1.03656 16.5749 1.03621 16.575 1.03585 16.5752C1.0355 16.5754 1.03461 16.5756 1.03408 16.5757C1.03372 16.5759 1.03301 16.5761 1.03266 16.5761C1.0323 16.5766 1.03159 16.5768 1.03106 16.577C1.03071 16.5772 1.03 16.5774 1.02947 16.5777C1.02893 16.5779 1.02858 16.5779 1.02805 16.5781C1.02769 16.5784 1.02681 16.5786 1.02627 16.579C1.02592 16.5791 1.02539 16.5791 1.02503 16.5793C1.02432 16.5797 1.02361 16.58 1.02308 16.5802C1.02273 16.5804 1.02255 16.5806 1.02219 16.5806C1.02131 16.5811 1.02042 16.5815 1.01971 16.5818C1.01971 16.5818 1.01953 16.582 1.01936 16.582C0.987609 16.5967 0.963843 16.6182 0.951251 16.6463C0.950896 16.647 0.950541 16.6481 0.950187 16.6489V16.6491L0.9493 16.6518C0.948945 16.6527 0.948413 16.6536 0.948058 16.6545C0.947881 16.6556 0.947349 16.6568 0.946994 16.6579C0.944511 16.6654 0.943092 16.6733 0.942383 16.681V16.6989V16.6991C0.942738 16.7001 0.942915 16.7012 0.942915 16.7023V16.7025C0.942915 16.7034 0.943092 16.7046 0.94327 16.7057V16.7062C0.943447 16.7073 0.943624 16.7084 0.943802 16.7096C0.944156 16.712 0.944688 16.7143 0.945221 16.7166V16.7168C0.961183 16.7875 1.0378 16.8593 1.14422 16.8947L1.45052 16.9974C1.45531 16.9989 1.45992 17.0001 1.46435 17.0017C1.5016 17.0126 1.53831 17.018 1.57254 17.0182H1.57449H1.57857C1.6559 17.0175 1.7201 16.9899 1.74706 16.9418C1.74972 16.9369 1.75221 16.9316 1.75398 16.9262C1.75433 16.9253 1.75469 16.9244 1.75504 16.9235C1.75895 16.9122 1.7609 16.9004 1.7609 16.8886C1.76107 16.8109 1.67896 16.7245 1.55977 16.6851L1.25258 16.5817C1.25081 16.5809 1.24886 16.5804 1.24691 16.5797C1.24655 16.5795 1.2462 16.5793 1.24549 16.5793C1.24372 16.5786 1.24212 16.5781 1.24035 16.5777C1.23999 16.5774 1.23911 16.5772 1.23857 16.577C1.23733 16.5766 1.23591 16.5761 1.23485 16.5759C1.23396 16.5757 1.23343 16.5754 1.23237 16.5752C1.23095 16.5749 1.22953 16.5745 1.22829 16.5741C1.22722 16.5738 1.22634 16.5736 1.22545 16.5731C1.22456 16.5729 1.22385 16.5729 1.22279 16.5725C1.22119 16.5722 1.2196 16.5718 1.218 16.5715C1.21764 16.5715 1.21694 16.5711 1.2164 16.5711C1.21286 16.5702 1.20895 16.5693 1.20523 16.5684H1.20505C1.19459 16.5664 1.1843 16.5645 1.17419 16.5634C1.17401 16.5634 1.17366 16.5634 1.17348 16.5632C1.17153 16.5629 1.16958 16.5627 1.16781 16.5625C1.16674 16.5623 1.16603 16.5623 1.16515 16.5621C1.16461 16.5621 1.16355 16.5618 1.16302 16.5618C1.16107 16.5618 1.15965 16.5616 1.15787 16.5614H1.15699C1.15504 16.5612 1.15309 16.5611 1.15131 16.5609H1.10662Z" fill="url(#paint80_linear_1291_16536)"/>
<path d="M2.3141 16.8243C2.31357 16.8243 2.31339 16.8243 2.31321 16.8243C2.31161 16.8247 2.31002 16.8251 2.30842 16.8254C2.27472 16.8338 2.24493 16.8467 2.22063 16.8628C2.18179 16.8886 2.15678 16.9231 2.15447 16.962C2.1543 16.9648 2.1543 16.9677 2.1543 16.9706C2.15483 17.0585 2.26568 17.1368 2.40757 17.1454L2.7293 17.1676C2.73444 17.168 2.73958 17.1682 2.74473 17.1684H2.75324H2.75572H2.75856C2.89052 17.1675 2.99906 17.1037 3.00438 17.0196C3.00456 17.0168 3.00456 17.0139 3.00456 17.0112C3.00385 16.9242 2.89335 16.8467 2.75129 16.8381L2.42956 16.815C2.42051 16.8145 2.41182 16.8141 2.40295 16.8141C2.37174 16.8141 2.34159 16.8177 2.3141 16.8243Z" fill="url(#paint81_linear_1291_16536)"/>
<path d="M3.64445 16.901C3.52278 16.9083 3.42665 16.9693 3.42169 17.0484C3.42151 17.0513 3.42151 17.0543 3.42151 17.0568C3.42222 17.1447 3.53289 17.2212 3.67407 17.2299L3.99651 17.2521C4.00165 17.2527 4.00679 17.2527 4.01212 17.2528C4.01655 17.253 4.02116 17.2532 4.02559 17.2532H4.02719H4.0334C4.16181 17.2514 4.26592 17.1886 4.27159 17.1061C4.27177 17.1037 4.27177 17.1016 4.27177 17.0996C4.2723 17.0108 4.16145 16.9332 4.01939 16.9228L3.69766 16.9011C3.6879 16.9006 3.6785 16.9002 3.66928 16.9002C3.66094 16.9002 3.65261 16.9004 3.64445 16.901Z" fill="url(#paint82_linear_1291_16536)"/>
<path d="M4.77906 17.0203H4.77888C4.76097 17.0297 4.74536 17.0402 4.73188 17.0522C4.70687 17.0751 4.69109 17.1029 4.68896 17.1329C4.68896 17.1353 4.6886 17.1372 4.6886 17.1394C4.68772 17.2289 4.80069 17.3058 4.94152 17.3164L5.26449 17.3384C5.2691 17.3388 5.27371 17.3389 5.27815 17.3391C5.28223 17.3391 5.28613 17.3393 5.29003 17.3393H5.2918C5.295 17.3393 5.29801 17.3393 5.3012 17.3391C5.43014 17.3364 5.5339 17.274 5.54011 17.1906C5.54011 17.1879 5.54028 17.1848 5.54028 17.1821C5.54011 17.095 5.42766 17.0177 5.28755 17.0082L4.96564 16.986C4.95979 16.9856 4.95411 16.9854 4.94808 16.9854C4.94489 16.9851 4.94187 16.9851 4.93886 16.9851C4.8782 16.9851 4.82233 16.9982 4.77906 17.0203Z" fill="url(#paint83_linear_1291_16536)"/>
<path d="M6.00674 17.1318C5.97748 17.156 5.95956 17.1861 5.9569 17.2194C5.95673 17.2222 5.95673 17.2251 5.95673 17.2278C5.95744 17.3148 6.06899 17.3921 6.20946 17.4017L6.53173 17.4241C6.53669 17.4243 6.54183 17.4247 6.54698 17.4247C6.54999 17.4248 6.55336 17.4248 6.55673 17.4248H6.55851H6.56454C6.67858 17.4232 6.77329 17.3762 6.80042 17.3085C6.80255 17.3037 6.80397 17.2985 6.80539 17.2936C6.80646 17.2881 6.80752 17.2825 6.80787 17.277C6.80805 17.2747 6.80805 17.2727 6.80805 17.2706C6.80841 17.1829 6.69702 17.103 6.55407 17.0935L6.23252 17.0731C6.22507 17.0726 6.21815 17.0722 6.21088 17.0721C6.20769 17.0721 6.2045 17.0719 6.2013 17.0719C6.12167 17.0719 6.05126 17.095 6.00674 17.1318Z" fill="url(#paint84_linear_1291_16536)"/>
<path d="M7.22338 17.3049C7.22338 17.3071 7.22321 17.309 7.22321 17.3112C7.22303 17.3985 7.33512 17.4778 7.47648 17.4882L7.79909 17.5088C7.80424 17.5089 7.80938 17.5093 7.81452 17.5095C7.8186 17.5097 7.82286 17.5097 7.82694 17.5097H7.82942H7.83563C7.96457 17.5075 8.06939 17.445 8.07435 17.3625C8.07489 17.3597 8.07489 17.3568 8.07489 17.3539C8.07382 17.2662 7.96386 17.1893 7.82197 17.1789L7.50024 17.1571C7.4912 17.1563 7.48251 17.1562 7.47364 17.1562C7.33955 17.1562 7.22941 17.2199 7.22338 17.3049Z" fill="url(#paint85_linear_1291_16536)"/>
<path d="M2.00605 22.3157C2.0048 22.322 2.00427 22.3286 2.00427 22.3349C2.00427 22.4177 2.10164 22.5018 2.23573 22.5264L2.55355 22.5847C2.55941 22.586 2.56561 22.587 2.57147 22.5879C2.5908 22.5908 2.6096 22.5922 2.62787 22.5924H2.63035C2.63372 22.5924 2.63709 22.5922 2.64064 22.5922C2.74634 22.5895 2.83148 22.5423 2.84496 22.4711C2.8462 22.465 2.84691 22.4585 2.84691 22.4524C2.84708 22.369 2.74812 22.2856 2.61545 22.2618L2.29851 22.2017C2.28698 22.1997 2.27528 22.1981 2.26375 22.197C2.25045 22.1958 2.23768 22.1951 2.22491 22.1951C2.11264 22.1951 2.02059 22.2421 2.00605 22.3157Z" fill="url(#paint86_linear_1291_16536)"/>
<path d="M1.10839 21.7624C1.04986 21.7624 1.00073 21.7819 0.975549 21.8206C0.975017 21.8219 0.973953 21.8231 0.973421 21.8244C0.962425 21.8423 0.957458 21.8623 0.957458 21.8838C0.957458 21.9564 1.01812 22.0433 1.11584 22.0998L1.39288 22.2618C1.39625 22.2638 1.39962 22.2657 1.40316 22.2675C1.40387 22.2679 1.40423 22.2681 1.40458 22.2684C1.45566 22.2958 1.50816 22.3108 1.55587 22.3133C1.56101 22.3137 1.56616 22.3139 1.5713 22.3139H1.57697C1.63196 22.3126 1.67789 22.2936 1.70272 22.2571C1.70414 22.2553 1.70521 22.2536 1.70627 22.2518C1.71673 22.234 1.72188 22.214 1.7217 22.1929C1.72117 22.12 1.66175 22.0332 1.56545 21.9772L1.28611 21.8142C1.25294 21.7948 1.21871 21.7809 1.18519 21.7725C1.18519 21.7723 1.18483 21.7723 1.18483 21.7723C1.18324 21.7719 1.18164 21.7716 1.17987 21.7712C1.17969 21.771 1.17934 21.771 1.17916 21.7708C1.17774 21.7705 1.17632 21.7703 1.17472 21.7699C1.17455 21.7698 1.17419 21.7698 1.17348 21.7696C1.17189 21.7692 1.17029 21.7689 1.16887 21.7687C1.16852 21.7685 1.16834 21.7685 1.16798 21.7685C1.16639 21.7682 1.16479 21.768 1.16302 21.7676H1.16249C1.14422 21.764 1.12648 21.7624 1.10928 21.7624H1.10839Z" fill="url(#paint87_linear_1291_16536)"/>
<path d="M3.25287 22.5335C3.25287 22.5364 3.25269 22.5393 3.25269 22.5423C3.25163 22.6293 3.36283 22.7084 3.50277 22.7211L3.82397 22.7501C3.83035 22.7506 3.83692 22.751 3.84312 22.7513C3.84827 22.7515 3.85305 22.7515 3.85802 22.7515H3.85909C3.86316 22.7515 3.86724 22.7515 3.8715 22.7513C3.982 22.7481 4.07334 22.7011 4.09781 22.6345C4.10065 22.6271 4.1026 22.6194 4.10366 22.6114C4.10366 22.6103 4.10384 22.6089 4.10402 22.6074C4.1042 22.6048 4.10437 22.6023 4.10437 22.599C4.10526 22.5129 3.9953 22.434 3.85483 22.4202L3.53399 22.3923C3.5276 22.3916 3.52122 22.3914 3.51483 22.3911H3.51465C3.50827 22.3907 3.50188 22.3907 3.49568 22.3907C3.36656 22.3907 3.2605 22.4507 3.25287 22.5335Z" fill="url(#paint88_linear_1291_16536)"/>
<path d="M4.6187 22.5705C4.58163 22.5958 4.55786 22.6291 4.55449 22.6667C4.55414 22.6697 4.55414 22.6722 4.55414 22.6749C4.55396 22.7617 4.66162 22.8413 4.80351 22.8546L5.12435 22.8822C5.12612 22.8823 5.12825 22.8825 5.13002 22.8827C5.14013 22.8834 5.15042 22.8838 5.16018 22.8838C5.16053 22.8838 5.16088 22.8839 5.16142 22.8839C5.16355 22.8839 5.16532 22.8838 5.16727 22.8838C5.2939 22.882 5.3966 22.8218 5.40369 22.7406C5.40404 22.7374 5.40422 22.7336 5.40422 22.73C5.40387 22.6439 5.29461 22.5659 5.1545 22.5534L4.83366 22.5245C4.83011 22.5244 4.82674 22.524 4.82337 22.5238C4.81415 22.5231 4.80492 22.5229 4.79623 22.5229C4.726 22.5229 4.66268 22.541 4.6187 22.5705Z" fill="url(#paint89_linear_1291_16536)"/>
<path d="M6.07746 22.603C5.93575 22.603 5.81993 22.674 5.81763 22.7635V22.7658C5.81834 22.8566 5.93504 22.9309 6.08065 22.9334L6.40327 22.9375H6.41728C6.53948 22.9353 6.64057 22.8811 6.66487 22.8083C6.66505 22.8075 6.6654 22.807 6.6654 22.8063C6.66558 22.8058 6.66576 22.8052 6.66594 22.8045V22.8043C6.66611 22.8038 6.66629 22.8032 6.66647 22.8024V22.8022C6.66665 22.8016 6.667 22.8013 6.667 22.8006C6.667 22.8004 6.667 22.8004 6.66718 22.8002C6.66718 22.7997 6.66736 22.7993 6.66736 22.7988C6.66753 22.7986 6.66753 22.7984 6.66753 22.7981C6.66771 22.7977 6.66771 22.7973 6.66789 22.7972C6.66789 22.7966 6.66789 22.7963 6.66807 22.7961C6.66807 22.7957 6.66807 22.7956 6.66842 22.795C6.66842 22.7945 6.6686 22.7941 6.6686 22.7939C6.6686 22.7938 6.6686 22.7936 6.66877 22.7934C6.66877 22.7929 6.66877 22.7923 6.66877 22.792C6.66877 22.7916 6.66895 22.7914 6.66895 22.7911C6.66895 22.7909 6.66913 22.7904 6.66913 22.79C6.66913 22.7896 6.66913 22.7893 6.66931 22.7891V22.7879C6.66948 22.7875 6.66948 22.7873 6.66948 22.787C6.66948 22.7866 6.66966 22.7861 6.66966 22.7859V22.7852C6.66966 22.7846 6.67002 22.7843 6.67002 22.7837V22.7832C6.67002 22.7827 6.67019 22.7821 6.67019 22.7816V22.7809V22.7794C6.67037 22.778 6.67037 22.7768 6.67037 22.7755V22.7734C6.67073 22.6837 6.55278 22.6092 6.40806 22.6069L6.08473 22.603H6.07746Z" fill="url(#paint90_linear_1291_16536)"/>
<path d="M7.6592 22.4854L7.33924 22.5264C7.20072 22.5453 7.09732 22.6266 7.09821 22.7127C7.09821 22.7168 7.09839 22.7213 7.09892 22.7254C7.10974 22.8007 7.20197 22.8548 7.3176 22.858C7.32133 22.8582 7.32523 22.8582 7.32896 22.8582H7.33126C7.34847 22.858 7.36585 22.8569 7.38394 22.8546L7.70318 22.8124C7.84028 22.7945 7.9451 22.7136 7.94528 22.6284C7.94528 22.6234 7.94493 22.6185 7.94422 22.6135C7.93357 22.5351 7.8362 22.4814 7.71595 22.4814C7.69769 22.4814 7.67853 22.4829 7.6592 22.4854Z" fill="url(#paint91_linear_1291_16536)"/>
<path d="M8.71536 22.0239L8.4385 22.1881C8.34202 22.2455 8.28261 22.333 8.28296 22.4055C8.28296 22.4268 8.2881 22.4469 8.2991 22.4646C8.30176 22.4685 8.30424 22.4723 8.30726 22.4759C8.33351 22.5079 8.37785 22.5242 8.43017 22.5247C8.43106 22.5249 8.43194 22.5249 8.43283 22.5249C8.4346 22.5249 8.43638 22.5249 8.43815 22.5247C8.48551 22.5238 8.53907 22.5102 8.59068 22.4837C8.59848 22.4798 8.60629 22.4757 8.61374 22.471L8.889 22.306C8.98548 22.2487 9.04525 22.161 9.04472 22.0885C9.04454 22.0672 9.03922 22.0474 9.02822 22.0298C9.02485 22.0243 9.02095 22.0191 9.0167 22.0144C8.98992 21.9849 8.94664 21.9702 8.89591 21.9702C8.84022 21.9702 8.77584 21.988 8.71536 22.0239Z" fill="url(#paint92_linear_1291_16536)"/>
<path d="M9.48935 21.2429L9.29142 21.4938C9.24158 21.5577 9.21533 21.6293 9.21533 21.6898C9.21551 21.7369 9.23129 21.777 9.26428 21.8013C9.26783 21.8042 9.27173 21.8069 9.27563 21.809C9.29302 21.8194 9.31323 21.8242 9.33487 21.8246H9.33824C9.34853 21.8246 9.35882 21.8237 9.36946 21.8219C9.43313 21.8103 9.5039 21.7657 9.55852 21.6961L9.75468 21.4437C9.80452 21.3805 9.83041 21.3089 9.83095 21.2484C9.8313 21.2015 9.81605 21.1614 9.78483 21.1373C9.77632 21.1308 9.76692 21.1258 9.75663 21.1221C9.74191 21.1165 9.72595 21.1138 9.7091 21.1138C9.6378 21.1138 9.55196 21.1616 9.48935 21.2429Z" fill="url(#paint93_linear_1291_16536)"/>
<path d="M9.91872 20.1958C9.90134 20.2268 9.88768 20.2626 9.87935 20.3014L9.8116 20.6121C9.80557 20.6404 9.80255 20.6685 9.80255 20.6952C9.80255 20.8003 9.84778 20.8865 9.92174 20.9014C9.92865 20.903 9.93575 20.9035 9.94267 20.9037H9.94391C9.95047 20.9037 9.95703 20.903 9.96377 20.9019C10.0404 20.8885 10.1152 20.7994 10.1406 20.6814L10.2073 20.3696C10.2137 20.3412 10.2163 20.3136 10.2163 20.2869C10.216 20.1824 10.1706 20.0969 10.0993 20.0815C10.097 20.0809 10.0945 20.0802 10.0922 20.0798C10.087 20.0793 10.0817 20.0791 10.0766 20.0791C10.0175 20.0791 9.95845 20.1248 9.91872 20.1958Z" fill="url(#paint94_linear_1291_16536)"/>
<path d="M9.97495 18.9206C9.96857 18.9206 9.96218 18.921 9.9558 18.9222C9.88042 18.9365 9.83094 19.0276 9.83112 19.1382C9.83112 19.1613 9.83324 19.1851 9.83786 19.2093L9.89638 19.5216C9.89727 19.5268 9.89851 19.5322 9.89958 19.5372C9.90171 19.5467 9.90401 19.5556 9.90667 19.5644C9.93824 19.6689 10.0083 19.7437 10.0815 19.7489C10.084 19.7491 10.0867 19.7493 10.0895 19.7493H10.0918C10.0941 19.7491 10.0966 19.7491 10.0991 19.7487C10.1011 19.7487 10.1028 19.7484 10.105 19.7482C10.1062 19.748 10.1074 19.748 10.1089 19.7475C10.1837 19.7346 10.2332 19.6439 10.2328 19.5327C10.2328 19.5096 10.2307 19.4856 10.2261 19.4613L10.1693 19.1501C10.1575 19.0872 10.1319 19.0317 10.0991 18.9909L10.098 18.99C10.0979 18.9897 10.0975 18.9891 10.0975 18.989C10.0762 18.9634 10.0518 18.9437 10.0262 18.9319C10.0259 18.9319 10.0257 18.9317 10.0255 18.9315C10.0243 18.9313 10.0236 18.9308 10.0225 18.9304C10.0069 18.924 9.99109 18.9206 9.97513 18.9206H9.97495Z" fill="url(#paint95_linear_1291_16536)"/>
<path d="M9.35474 18.0151C9.3347 18.0189 9.31696 18.0271 9.30189 18.0398C9.27316 18.0638 9.25968 18.1007 9.26021 18.1434C9.26092 18.2055 9.29142 18.28 9.34729 18.3443L9.55729 18.5861C9.55941 18.5882 9.56136 18.5905 9.56332 18.5927C9.56438 18.5939 9.5658 18.5952 9.56686 18.5963C9.56881 18.5986 9.57094 18.6007 9.57289 18.6027H9.57307C9.63053 18.6611 9.69917 18.6963 9.75912 18.702C9.76462 18.7024 9.77029 18.7026 9.77561 18.7026H9.77969C9.80541 18.702 9.82918 18.6952 9.84869 18.6818C9.85188 18.6798 9.85507 18.6773 9.85809 18.6747C9.88646 18.651 9.89994 18.6143 9.89959 18.5716C9.89923 18.5093 9.86908 18.4346 9.81233 18.3706L9.60162 18.13C9.5548 18.076 9.49769 18.0389 9.4436 18.0223C9.42267 18.016 9.4021 18.0124 9.38276 18.0124C9.37301 18.0124 9.36361 18.0131 9.35474 18.0151Z" fill="url(#paint96_linear_1291_16536)"/>
<path d="M8.33169 17.4297C8.32992 17.4324 8.3285 17.435 8.3269 17.4379C8.31928 17.4531 8.31573 17.4698 8.31555 17.4871C8.31555 17.5621 8.3833 17.6507 8.48972 17.7015L8.77899 17.8424C8.78467 17.8454 8.79052 17.8478 8.7962 17.8503C8.79797 17.851 8.79921 17.8519 8.80098 17.8522C8.84 17.8687 8.87955 17.8782 8.91645 17.8811C8.92443 17.8816 8.93241 17.882 8.94021 17.882H8.94677C9.00974 17.8805 9.06188 17.8583 9.08689 17.8175C9.08813 17.8152 9.08955 17.8129 9.09079 17.8104C9.09859 17.795 9.10232 17.7783 9.1025 17.761C9.10303 17.6858 9.03528 17.5979 8.92815 17.5458L8.63994 17.4059C8.58443 17.3792 8.5275 17.3667 8.4773 17.3667C8.4115 17.3667 8.35723 17.3881 8.33169 17.4297Z" fill="url(#paint97_linear_1291_16536)"/>
</g>
</g>
</g>
<path d="M5.92342 21.3189C6.51126 21.9795 7.52523 22.0399 8.18914 21.4549C8.85377 20.8698 8.91449 19.8627 8.32701 19.2024C7.73759 18.5438 6.72432 18.4815 6.06023 19.0657C5.39631 19.651 5.33506 20.6597 5.92342 21.3189Z" fill="#CBAF3B"/>
<path d="M5.97865 18.8871C5.64121 19.1869 5.4691 19.605 5.46875 20.0254C5.4684 20.3849 5.59365 20.7458 5.84904 21.0361C6.40318 21.6659 7.35817 21.7249 7.98391 21.1654C8.32082 20.8648 8.49276 20.4467 8.49276 20.0267C8.49293 19.6675 8.36733 19.307 8.11195 19.0172C7.81371 18.677 7.39771 18.5033 6.98014 18.5033C6.62407 18.5033 6.26661 18.63 5.97865 18.8871Z" fill="url(#paint98_linear_1291_16536)"/>
<path d="M5.98721 18.8931C5.64528 19.1974 5.47087 19.6216 5.47052 20.0482C5.47017 20.4129 5.59709 20.7792 5.85588 21.0738C6.41741 21.7128 7.25185 21.6186 7.8847 21.0531C8.26088 20.7172 8.48136 20.2901 8.48101 19.8649C8.48083 19.5742 8.37721 19.2842 8.14896 19.0251C7.84675 18.6799 7.4252 18.5036 7.00207 18.5036C6.64125 18.5036 6.27901 18.6322 5.98721 18.8931Z" fill="url(#paint99_linear_1291_16536)"/>
<path d="M5.95389 18.8379C5.61889 19.1363 5.47051 19.5688 5.47138 19.9307C5.47155 20.155 5.52951 20.3522 5.63547 20.4731C5.91304 20.7876 6.5771 20.6503 7.12035 20.1671C7.50248 19.8273 7.72209 19.4068 7.72209 19.0774C7.72209 18.9386 7.68299 18.8156 7.60042 18.7222C7.4674 18.5707 7.20938 18.4797 6.91541 18.4797C6.5963 18.4797 6.23599 18.5867 5.95389 18.8379Z" fill="url(#paint100_linear_1291_16536)"/>
<path d="M24.0107 28.1467H26.3357C27.195 28.1467 27.7575 27.5023 28.0129 26.0517C28.2521 24.6593 27.9398 24.0378 27.0732 24.0378L24.7459 24.0378L25.1157 21.9486C25.5217 19.5631 26.7412 18.3846 28.7465 18.3846H29.1298C30.2414 18.3846 30.8525 18.1977 30.936 17.6688C31.0063 17.3083 30.9051 16.8167 30.7955 16.2754C30.6747 15.7472 30.5492 15.2378 30.3716 14.9513C30.0993 14.4683 29.4858 14.2333 28.513 14.2333C26.1071 14.2333 24.1185 14.8918 22.5614 16.268C21.0108 17.6332 20.0226 19.4926 19.5866 21.9835L19.2144 24.0378H14.3328C14.2542 24.0378 9.2075 24.6146 9.2075 24.6146L13.8539 25.3325L14.0419 26.0234L11.1989 26.2706L14.1843 26.7083L14.3012 27.2752L5.39911 27.7767C5.39911 27.7767 15.0106 28.1467 15.0915 28.1467H18.4704L17.5962 33.1822H23.1441" fill="#2A55E5"/>
<path fill-rule="evenodd" clip-rule="evenodd" d="M17.5961 33.1825H17.966L18.874 28.1441L18.4742 28.1494L17.5961 33.1825ZM27.1828 24.0416L26.9079 24.0322C26.6784 24.0322 24.7458 24.0378 24.7458 24.0378L24.6422 24.5452H27.969C27.969 24.5452 27.8061 24.076 27.1828 24.0416ZM28.5131 14.2342C29.0084 14.1843 29.8667 14.3847 30.114 14.6386C30.3716 14.8993 30.4611 15.1131 30.4611 15.1131C30.0296 14.5759 29.3406 14.5218 28.5569 14.5218C26.1524 14.5218 24.3781 15.1096 22.9034 16.4168C21.3968 17.754 20.4109 19.5681 19.9868 22.0093L19.6181 24.1855L19.5759 24.5193L10.5132 24.483L14.3489 24.0322H19.2006L19.5865 21.9159C20.0225 19.4171 21.0026 17.6402 22.5613 16.2678C25.0556 14.0634 28.5131 14.2342 28.5131 14.2342Z" fill="#112AB8"/>
<path fill-rule="evenodd" clip-rule="evenodd" d="M51.8666 30.2526C54.4151 30.2526 55.7276 29.3718 55.8043 27.6105C55.8043 26.9213 55.5656 26.3736 55.0885 25.9677C54.6112 25.5597 53.8714 25.3558 52.8685 25.3558C51.5317 25.3558 50.4704 25.8071 49.6831 26.7055C48.8953 27.6059 48.501 28.7156 48.501 30.0371C48.501 31.0709 48.7712 31.8602 49.3103 32.4064C49.8497 32.9525 50.7592 33.2249 52.038 33.2249C52.9551 33.2249 53.8145 33.1001 54.6154 32.852L54.9592 31.0282C54.1575 31.3052 53.3797 31.4437 52.6257 31.4437C51.9855 31.4437 51.5345 31.3488 51.2719 31.1569C51.0096 30.9655 50.8541 30.6505 50.8067 30.2099C51.1505 30.2379 51.5038 30.2526 51.8666 30.2526ZM51.3791 28.8306C51.1692 28.8306 51.0166 28.8221 50.9212 28.8032C51.0546 28.2565 51.2718 27.8317 51.5725 27.5241C51.8731 27.2183 52.2529 27.0654 52.7115 27.0654C52.9976 27.0654 53.2125 27.1347 53.3558 27.274C53.4995 27.4116 53.5707 27.5912 53.5707 27.8113C53.5707 28.4911 52.8406 28.8306 51.3791 28.8306ZM40.0641 30.5397L39.6343 32.7079L40.035 32.8358C40.3122 32.9224 40.7272 33.0062 41.2811 33.0883C41.8346 33.1697 42.3935 33.2109 42.9568 33.2109C44.4647 33.2109 45.6297 32.9155 46.4512 32.3272C47.2716 31.7388 47.6825 30.8701 47.6825 29.7218C47.6825 29.2139 47.5628 28.7739 47.3241 28.3999C47.0853 28.0271 46.7891 27.7486 46.4366 27.5674C46.0832 27.3862 45.6969 27.221 45.2767 27.0727C44.8562 26.924 44.4699 26.8094 44.1166 26.7278C43.7632 26.6468 43.4677 26.529 43.229 26.3764C42.9895 26.2225 42.8706 26.0358 42.8706 25.8159C42.8706 25.4803 43.0831 25.225 43.5078 25.0479C43.9323 24.8704 44.436 24.7824 45.0193 24.7824C45.5628 24.7824 46.1098 24.8374 46.6582 24.9476C47.2068 25.057 47.6059 25.179 47.8541 25.3134L48.2837 23.2454C48.1783 23.1976 48.0044 23.1403 47.7614 23.073C47.5175 23.0068 47.1499 22.9346 46.6582 22.8577C46.1664 22.7815 45.6775 22.7431 45.19 22.7431C43.7299 22.7431 42.5821 23.0474 41.7466 23.655C40.9107 24.263 40.4931 25.1117 40.4931 26.2034C40.4931 26.7013 40.6129 27.1267 40.8513 27.4815C41.0901 27.8359 41.3863 28.1003 41.7397 28.2783C42.0922 28.455 42.4791 28.6154 42.8996 28.7585C43.32 28.9024 43.7055 29.0174 44.0589 29.1032C44.4122 29.1897 44.7086 29.3174 44.9472 29.4841C45.1859 29.6521 45.3054 29.8501 45.3054 30.0801C45.3054 30.4251 45.1068 30.6877 44.711 30.8701C44.3143 31.0515 43.8202 31.1425 43.229 31.1425C42.5991 31.1425 41.9629 31.0765 41.3244 30.9415C40.6841 30.8078 40.2645 30.6745 40.0641 30.5397ZM47.1772 12.6515L47.0718 13.324C47.0439 13.5018 46.8952 13.6315 46.7141 13.6315H43.8889L43.6215 15.4306H45.8193C45.9245 15.4306 46.0255 15.4783 46.0918 15.5591C46.1606 15.6418 46.1932 15.748 46.1769 15.8528L46.0817 16.4402C46.0536 16.6166 45.9006 16.7434 45.7225 16.7434H43.3948L42.9735 19.4315C42.9463 19.6096 42.7953 19.7381 42.6142 19.7381H41.6768C41.5732 19.7381 41.4704 19.6903 41.4035 19.6113C41.3371 19.5295 41.3023 19.4229 41.3208 19.3174L42.3893 12.5406C42.4224 12.3619 42.5728 12.2341 42.7518 12.2341H46.8155C46.925 12.2341 47.0233 12.281 47.0921 12.3583C47.162 12.442 47.1916 12.5466 47.1772 12.6515ZM68.1586 15.479L68.19 15.4875L67.9463 17.0436C67.7171 17.4313 67.4514 17.7747 67.1625 18.0604C66.8696 18.353 66.602 18.4999 66.3736 18.4999C66.1656 18.4999 66.0041 18.3903 65.8906 18.1741C65.7816 17.967 65.7264 17.6989 65.7264 17.3822C65.7264 16.878 65.8573 16.4096 66.1138 15.996C66.3736 15.5745 66.7686 15.359 67.2924 15.359C67.6176 15.359 67.9089 15.4024 68.1586 15.479ZM69.1531 19.4409L69.896 14.6939C69.9265 14.5 69.7983 14.3168 69.6064 14.2819C68.8201 14.1278 68.1127 14.047 67.5091 14.047C67.0129 14.047 66.562 14.1217 66.1656 14.27C65.7691 14.4199 65.441 14.6147 65.1949 14.8539C64.9433 15.0933 64.732 15.3752 64.5629 15.6969C64.395 16.0156 64.2743 16.3432 64.2097 16.6653C64.1428 16.9837 64.1078 17.3191 64.1078 17.6597C64.1078 18.3161 64.2582 18.8526 64.5629 19.2609C64.8664 19.6673 65.2796 19.8657 65.8393 19.8657C66.0923 19.8657 66.3346 19.8249 66.5606 19.7422C66.5651 19.7401 66.5739 19.7365 66.5865 19.7313C66.6902 19.6886 67.0498 19.5403 67.3757 19.2859C67.6202 19.0951 67.8325 18.8602 67.8325 18.8559L67.9006 18.7847L67.8756 19.373C67.8749 19.4717 67.9115 19.5676 67.9805 19.6375C68.0482 19.7092 68.1417 19.7485 68.2403 19.7485H68.7938C68.9739 19.7485 69.1233 19.6206 69.1531 19.4409ZM72.8878 14.5927C73.1266 14.4199 73.4892 14.1892 73.8618 14.1032C73.9808 14.0741 74.1082 14.1082 74.1956 14.1925C74.2837 14.2793 74.3231 14.4019 74.2992 14.5213L74.1346 15.4135C74.1048 15.5634 73.9859 15.6807 73.8363 15.7056C73.5595 15.7456 73.2834 15.8563 73.0108 16.0249C72.6535 16.253 72.3565 16.5315 72.1235 16.8543L71.7237 19.4409C71.6946 19.6206 71.5436 19.7485 71.3653 19.7485H70.5007C70.3936 19.7485 70.2945 19.7042 70.2281 19.6206C70.1553 19.5399 70.127 19.4352 70.1425 19.3293L70.9083 14.4709C70.9336 14.2938 71.0842 14.1662 71.2641 14.1662H71.8228C71.9206 14.1662 72.0175 14.207 72.0861 14.2793C72.1525 14.3533 72.1923 14.4481 72.1875 14.5448L72.1496 15.3003L72.2143 15.2305L72.2186 15.226C72.2623 15.1791 72.6303 14.7848 72.8878 14.5927ZM56.3977 15.7404C56.5075 15.9448 56.5573 16.2148 56.5573 16.5322C56.5573 17.0391 56.4308 17.5047 56.1761 17.9184C55.9174 18.3419 55.5207 18.5539 54.9948 18.5539C54.6714 18.5539 54.3766 18.5131 54.1271 18.4354L54.1008 18.4242L54.3427 16.8687C54.5746 16.4838 54.8361 16.1415 55.1257 15.8528C55.4196 15.5608 55.6851 15.4135 55.9146 15.4135C56.121 15.4135 56.2823 15.5216 56.3977 15.7404ZM58.181 16.253C58.181 15.6008 58.0277 15.062 57.727 14.6548C57.4281 14.2445 57.0076 14.047 56.4524 14.047C56.2322 14.047 56.0208 14.08 55.7976 14.1516C55.0193 14.3967 54.5046 14.9961 54.4575 15.051L54.4541 15.0549L54.3904 15.1402L54.411 14.5408C54.4156 14.4445 54.3758 14.3483 54.3096 14.2769C54.2408 14.2044 54.1465 14.1662 54.0463 14.1662H53.4943C53.3145 14.1662 53.164 14.2938 53.1379 14.4709L52.0204 21.5171C52.0024 21.6232 52.0363 21.729 52.1043 21.813C52.1737 21.8907 52.2722 21.9382 52.3769 21.9382H53.2363C53.4136 21.9382 53.5632 21.8078 53.593 21.6328L53.7815 20.4782C53.7815 20.4706 53.7815 20.4628 53.7848 20.4552L53.8503 19.7984L53.8884 19.8047C54.2468 19.8514 54.5508 19.8754 54.793 19.8754C55.4053 19.8754 55.9444 19.7645 56.4021 19.5431C56.8591 19.321 57.2156 19.0265 57.4579 18.661C57.7031 18.2922 57.8916 17.904 58.0038 17.5047C58.1227 17.1063 58.181 16.6839 58.181 16.253ZM77.0175 14.1662H77.6925C77.8022 14.1662 77.9024 14.212 77.9729 14.298C78.0398 14.3807 78.0666 14.4922 78.0474 14.5995L77.9466 15.1198C77.9133 15.2891 77.7624 15.4135 77.5906 15.4135H76.825L76.4564 17.7958C76.4477 17.8641 76.447 17.9108 76.447 17.9364C76.447 18.2336 76.5332 18.322 76.5641 18.3538L76.5676 18.3573C76.6304 18.4133 76.7545 18.4394 76.8071 18.4465C76.828 18.4524 76.8664 18.4541 76.926 18.4541C76.9539 18.4541 76.987 18.4541 77.0201 18.4524C77.1492 18.4524 77.1806 18.4582 77.195 18.4617C77.2056 18.4659 77.2143 18.47 77.2237 18.4744L77.2238 18.4745C77.2319 18.4783 77.2404 18.4823 77.2509 18.4867C77.2783 18.5043 77.3054 18.5231 77.3267 18.5442C77.4118 18.6225 77.4506 18.7374 77.4362 18.8483L77.3785 19.384C77.3622 19.5006 77.2945 19.6037 77.1875 19.6592C77.1756 19.6673 77.1619 19.6757 77.1449 19.6821C77.1355 19.6862 77.0634 19.7111 77.0236 19.7229C76.9735 19.7422 76.5548 19.8657 76.256 19.8657C75.7626 19.8657 75.3848 19.7526 75.139 19.5279C74.8921 19.2989 74.7706 18.9672 74.7706 18.5068C74.7706 18.3297 74.7865 18.1585 74.8146 17.9976L75.2163 15.4135H74.9916C74.8845 15.4135 74.7808 15.3666 74.7131 15.2849C74.6439 15.2023 74.6151 15.0959 74.6321 14.9912L74.7136 14.4701C74.7441 14.2938 74.8936 14.1662 75.0744 14.1662H75.4482L75.777 13.0405C75.8219 12.8879 75.9653 12.7807 76.1258 12.7807H76.8071C76.9141 12.7807 77.0133 12.8267 77.083 12.9085C77.1525 12.9884 77.1806 13.095 77.1647 13.2015L77.0175 14.1662ZM63.6849 14.1662C63.7986 14.1662 63.9066 14.2191 63.9728 14.3101C64.0409 14.4019 64.0662 14.5213 64.0315 14.6311C63.9371 14.9606 63.7657 15.3131 63.5346 15.6817C63.1737 16.253 62.8128 16.7009 62.4595 17.0236L62.4416 17.0391L63.2934 19.2399C63.3113 19.2859 63.3241 19.3345 63.3241 19.384C63.3241 19.5839 63.161 19.7485 62.9596 19.7485H62.0244C61.8746 19.7485 61.7437 19.6592 61.6893 19.5203L60.9472 17.6364H60.4044L60.1222 19.4409C60.093 19.6206 59.9417 19.7485 59.7632 19.7485H58.9005C58.7935 19.7485 58.6932 19.7042 58.6244 19.6206C58.5568 19.5399 58.5242 19.4352 58.5438 19.3293L59.6172 12.5406C59.6434 12.3619 59.7938 12.2341 59.9754 12.2341H60.8383C60.9472 12.2341 61.0463 12.281 61.1127 12.3602C61.1832 12.4429 61.2122 12.5501 61.1967 12.6556L60.5947 16.4174L60.6439 16.4072C61.0349 16.3392 61.1497 16.2843 61.2242 16.2487L61.2273 16.2472L61.2595 16.2285C61.4676 16.0989 61.7122 15.8044 62.0035 15.3284C62.216 14.9912 62.3584 14.688 62.4364 14.4258C62.4834 14.2725 62.6252 14.1662 62.7841 14.1662H63.6849ZM52.292 13.4066C52.1178 13.5922 51.8537 13.686 51.4928 13.686C51.2298 13.686 51.0369 13.6296 50.906 13.5156C50.7802 13.4014 50.7166 13.2304 50.7166 13.0022C50.7166 12.7084 50.7982 12.4759 50.974 12.2861C51.1438 12.1004 51.4112 12.0077 51.7681 12.0077C52.032 12.0077 52.2325 12.0663 52.3582 12.1798C52.4849 12.2922 52.5483 12.4633 52.5483 12.6932C52.5483 12.9853 52.466 13.2193 52.292 13.4066ZM50.9298 14.1662H51.785C51.8911 14.1662 51.9897 14.2105 52.0594 14.293C52.1282 14.3739 52.1604 14.4803 52.1417 14.5858L51.3807 19.4409C51.3511 19.6206 51.2015 19.7485 51.0214 19.7485H50.169C50.0629 19.7485 49.961 19.7042 49.8911 19.6206C49.8241 19.5399 49.7927 19.4352 49.8112 19.3293L50.5703 14.4709C50.5995 14.2938 50.7504 14.1662 50.9298 14.1662ZM49.3749 12.6532C49.3953 12.5482 49.3603 12.4429 49.295 12.3583C49.2246 12.281 49.126 12.2341 49.0189 12.2341H48.1531C47.9746 12.2341 47.8245 12.3626 47.7971 12.5425C47.7867 12.6053 46.9022 18.259 46.8952 18.3128C46.8737 18.4354 46.8597 18.5538 46.8597 18.6588C46.8597 19.0458 46.981 19.348 47.2186 19.5531C47.4574 19.7621 47.8087 19.8657 48.2609 19.8657C48.4397 19.8657 48.6979 19.7928 48.7898 19.7574C48.8808 19.7229 48.9548 19.6862 49.0141 19.6445C49.0742 19.6002 49.1227 19.5143 49.1336 19.4118L49.1802 18.9293C49.1889 18.8235 49.1534 18.7174 49.0818 18.6404C49.0265 18.5837 48.9548 18.5442 48.878 18.5331C48.851 18.5296 48.7099 18.4958 48.6465 18.4354C48.5801 18.3725 48.5462 18.2492 48.5462 18.068C48.5462 18.0317 48.5494 17.9746 48.557 17.8804L49.3749 12.6532ZM60.0487 32.8943L60.2212 31.2001C59.9246 31.2867 59.6766 31.3293 59.4761 31.3293C59.2285 31.3293 59.0636 31.2905 58.982 31.2153C58.9004 31.1383 58.8609 30.9846 58.8609 30.7552C58.8609 30.7067 58.8649 30.626 58.8749 30.511L60.121 22.5564H57.8867L56.555 31.0712C56.5263 31.2427 56.5117 31.4011 56.5117 31.5442C56.5117 32.0814 56.6767 32.4925 57.0058 32.7793C57.3356 33.066 57.8099 33.211 58.4309 33.211C58.9846 33.211 59.5239 33.1047 60.0487 32.8943ZM64.7161 31.2001L64.5436 32.8943C64.0187 33.1047 63.4787 33.211 62.9251 33.211C62.3052 33.211 61.8293 33.066 61.5007 32.7793C61.1704 32.4925 61.0066 32.0814 61.0066 31.5442C61.0066 31.4011 61.0201 31.2427 61.0491 31.0712L62.3804 22.5564H64.6159L63.3691 30.511C63.3598 30.626 63.3547 30.7067 63.3547 30.7552C63.3547 30.9846 63.3953 31.1383 63.4769 31.2153C63.5573 31.2905 63.7223 31.3293 63.9703 31.3293C64.1708 31.3293 64.4186 31.2867 64.7161 31.2001ZM72.7113 27.6105C72.6349 29.3718 71.3228 30.2526 68.7733 30.2526C68.4109 30.2526 68.0575 30.2379 67.7137 30.2099C67.7614 30.6505 67.9165 30.9655 68.179 31.1569C68.4412 31.3488 68.8922 31.4437 69.5327 31.4437C70.2866 31.4437 71.0648 31.3052 71.8663 31.0282L71.5231 32.852C70.7218 33.1001 69.8622 33.2249 68.9451 33.2249C67.666 33.2249 66.7565 32.9525 66.2174 32.4064C65.6772 31.8602 65.4081 31.0709 65.4081 30.0371C65.4081 28.7156 65.802 27.6059 66.5893 26.7055C67.3775 25.8071 68.439 25.3558 69.7755 25.3558C70.7785 25.3558 71.5181 25.5597 71.9952 25.9677C72.4723 26.3736 72.7113 26.9213 72.7113 27.6105ZM67.8283 28.8032C67.9234 28.8221 68.0761 28.8306 68.2859 28.8306C69.7475 28.8306 70.478 28.4911 70.478 27.8113C70.478 27.5912 70.4059 27.4116 70.263 27.274C70.1194 27.1347 69.9049 27.0654 69.6183 27.0654C69.1597 27.0654 68.7802 27.2183 68.4797 27.5241C68.179 27.8317 67.9619 28.2565 67.8283 28.8032ZM73.1581 33.0528L74.3467 25.4852H76.1079L76.0221 27.309C76.7952 25.9875 77.7598 25.3282 78.9148 25.3282H79.0437L78.6141 27.6105C78.1276 27.6105 77.6453 27.7618 77.1678 28.0631C76.6899 28.3646 76.299 28.7303 75.9937 29.1616L75.3923 33.0528H73.1581ZM88.352 33.0528H90.7L92.3043 22.9006H89.9553L89.3116 27.0071H85.3161L85.9597 22.9006H83.626L82.022 33.0528H84.3558L84.9866 29.0464H88.9822L88.352 33.0528ZM100.522 25.4855L99.3184 33.0529H97.5718L97.6287 31.444C96.8372 32.6216 95.8199 33.21 94.5794 33.21C93.9109 33.21 93.4097 33.0236 93.0752 32.6511C92.7408 32.2769 92.5742 31.7798 92.5742 31.1572C92.5742 30.8983 92.594 30.6693 92.6311 30.4683L93.4336 25.4855H95.6538L94.9513 29.9085C94.9222 30.0511 94.9087 30.2041 94.9087 30.3669C94.9087 30.9326 95.109 31.2143 95.51 31.2143C95.8251 31.2143 96.1783 31.0376 96.5698 30.6829C96.9613 30.3298 97.3288 29.8843 97.672 29.3478L98.2878 25.4855H100.522ZM106.465 25.3281C107.219 25.3281 107.801 25.6061 108.211 26.1609C108.622 26.7153 108.827 27.4382 108.827 28.3286C108.827 28.7781 108.78 29.2246 108.684 29.6638C108.589 30.1038 108.426 30.5424 108.197 30.9777C107.968 31.4131 107.682 31.793 107.339 32.1196C106.995 32.4446 106.55 32.7079 106.006 32.9087C105.463 33.1105 104.856 33.211 104.188 33.211C103.281 33.211 102.183 33.0717 100.894 32.7938L102.512 22.5564H104.732L104.245 25.816L104.074 26.606C104.704 25.7529 105.5 25.3281 106.465 25.3281ZM105.749 27.2517C105.453 27.2517 105.111 27.4429 104.725 27.8263C104.338 28.2094 103.992 28.6585 103.687 29.1753L103.371 31.2001C103.705 31.3052 104.088 31.3581 104.517 31.3581C105.205 31.3581 105.717 31.0829 106.056 30.5318C106.395 29.9826 106.565 29.3722 106.565 28.7011C106.565 28.2808 106.493 27.9337 106.35 27.6613C106.207 27.3872 106.006 27.2517 105.749 27.2517Z" fill="#2A55E5"/>
<defs>
<linearGradient id="paint0_linear_1291_16536" x1="34.3009" y1="2.90952" x2="34.3" y2="6.8371" gradientUnits="userSpaceOnUse">
<stop stop-color="#F5F014"/>
<stop offset="1" stop-color="#FAB320"/>
</linearGradient>
<linearGradient id="paint1_linear_1291_16536" x1="88.42" y1="-3.11724" x2="88.5663" y2="13.2158" gradientUnits="userSpaceOnUse">
<stop stop-color="#FEE802"/>
<stop offset="0.005102" stop-color="#FEE802"/>
<stop offset="1" stop-color="#FAB320"/>
</linearGradient>
<linearGradient id="paint2_linear_1291_16536" x1="13.8339" y1="0.2158" x2="18.5079" y2="9.41894" gradientUnits="userSpaceOnUse">
<stop stop-color="#989A82"/>
<stop offset="0.879013" stop-color="#7C7C6A"/>
<stop offset="1" stop-color="#7C7C6A"/>
</linearGradient>
<linearGradient id="paint3_linear_1291_16536" x1="21.9179" y1="1.18905" x2="23.6504" y2="12.5134" gradientUnits="userSpaceOnUse">
<stop stop-color="#FBFCE0"/>
<stop offset="0.831601" stop-color="#BFBF9F"/>
<stop offset="1" stop-color="#BFBF9F"/>
</linearGradient>
<linearGradient id="paint4_linear_1291_16536" x1="8.09218" y1="4.60722" x2="8.39146" y2="2.91239" gradientUnits="userSpaceOnUse">
<stop stop-color="#FBFCE0"/>
<stop offset="0.831601" stop-color="#BFBF9F"/>
<stop offset="1" stop-color="#BFBF9F"/>
</linearGradient>
<linearGradient id="paint5_linear_1291_16536" x1="10.2641" y1="5.42075" x2="10.4302" y2="3.58131" gradientUnits="userSpaceOnUse">
<stop stop-color="#FBFCE0"/>
<stop offset="0.831601" stop-color="#BFBF9F"/>
<stop offset="1" stop-color="#BFBF9F"/>
</linearGradient>
<linearGradient id="paint6_linear_1291_16536" x1="13.6189" y1="6.4036" x2="13.8061" y2="4.42453" gradientUnits="userSpaceOnUse">
<stop stop-color="#FBFCE0"/>
<stop offset="0.831601" stop-color="#BFBF9F"/>
<stop offset="1" stop-color="#BFBF9F"/>
</linearGradient>
<linearGradient id="paint7_linear_1291_16536" x1="68.2498" y1="-2.27607" x2="68.5192" y2="14.5715" gradientUnits="userSpaceOnUse">
<stop stop-color="#F3EF13"/>
<stop offset="1" stop-color="#FBC709"/>
</linearGradient>
<linearGradient id="paint8_linear_1291_16536" x1="1.37633" y1="5.4081" x2="33.1314" y2="5.4081" gradientUnits="userSpaceOnUse">
<stop stop-color="#F3EE04"/>
<stop offset="0.503766" stop-color="#F3EE04"/>
<stop offset="1" stop-color="#FAB320"/>
</linearGradient>
<linearGradient id="paint9_linear_1291_16536" x1="17.3957" y1="-5.99232" x2="36.7391" y2="23.3997" gradientUnits="userSpaceOnUse">
<stop stop-color="#F9DD06"/>
<stop offset="1" stop-color="#FABD0C"/>
</linearGradient>
<linearGradient id="paint10_linear_1291_16536" x1="39.2124" y1="-4.09974" x2="43.5203" y2="26.9174" gradientUnits="userSpaceOnUse">
<stop stop-color="#F9DD06"/>
<stop offset="1" stop-color="#FABD0C"/>
</linearGradient>
<linearGradient id="paint11_linear_1291_16536" x1="39.6502" y1="-4.40843" x2="43.8598" y2="27.4258" gradientUnits="userSpaceOnUse">
<stop stop-color="#F9DD06"/>
<stop offset="1" stop-color="#FABD0C"/>
</linearGradient>
<linearGradient id="paint12_linear_1291_16536" x1="38.5785" y1="-2.76559" x2="42.6883" y2="28.1868" gradientUnits="userSpaceOnUse">
<stop stop-color="#F9DD06"/>
<stop offset="1" stop-color="#FABD0C"/>
</linearGradient>
<linearGradient id="paint13_linear_1291_16536" x1="37.8781" y1="-2.12973" x2="41.9786" y2="28.8066" gradientUnits="userSpaceOnUse">
<stop stop-color="#F9DD06"/>
<stop offset="1" stop-color="#FABD0C"/>
</linearGradient>
<linearGradient id="paint14_linear_1291_16536" x1="37.1306" y1="-1.46163" x2="41.2312" y2="29.4423" gradientUnits="userSpaceOnUse">
<stop stop-color="#F9DD06"/>
<stop offset="1" stop-color="#FABD0C"/>
</linearGradient>
<linearGradient id="paint15_linear_1291_16536" x1="36.3843" y1="-0.870731" x2="40.4852" y2="30.035" gradientUnits="userSpaceOnUse">
<stop stop-color="#F9DD06"/>
<stop offset="1" stop-color="#FABD0C"/>
</linearGradient>
<linearGradient id="paint16_linear_1291_16536" x1="35.5502" y1="0.25994" x2="39.5805" y2="30.7102" gradientUnits="userSpaceOnUse">
<stop stop-color="#F9DD06"/>
<stop offset="1" stop-color="#FABD0C"/>
</linearGradient>
<linearGradient id="paint17_linear_1291_16536" x1="35.103" y1="-0.0597197" x2="39.2775" y2="31.3058" gradientUnits="userSpaceOnUse">
<stop stop-color="#F9DD06"/>
<stop offset="1" stop-color="#FABD0C"/>
</linearGradient>
<linearGradient id="paint18_linear_1291_16536" x1="34.2002" y1="0.988872" x2="38.323" y2="31.9437" gradientUnits="userSpaceOnUse">
<stop stop-color="#F9DD06"/>
<stop offset="1" stop-color="#FABD0C"/>
</linearGradient>
<linearGradient id="paint19_linear_1291_16536" x1="33.4839" y1="1.67412" x2="37.5964" y2="32.5803" gradientUnits="userSpaceOnUse">
<stop stop-color="#F9DD06"/>
<stop offset="1" stop-color="#FABD0C"/>
</linearGradient>
<linearGradient id="paint20_linear_1291_16536" x1="33.2776" y1="1.37738" x2="37.4887" y2="33.2071" gradientUnits="userSpaceOnUse">
<stop stop-color="#F9DD06"/>
<stop offset="1" stop-color="#FABD0C"/>
</linearGradient>
<linearGradient id="paint21_linear_1291_16536" x1="32.0493" y1="2.91407" x2="36.1661" y2="33.8395" gradientUnits="userSpaceOnUse">
<stop stop-color="#F9DD06"/>
<stop offset="1" stop-color="#FABD0C"/>
</linearGradient>
<linearGradient id="paint22_linear_1291_16536" x1="31.4862" y1="3.5243" x2="35.5585" y2="34.4336" gradientUnits="userSpaceOnUse">
<stop stop-color="#F9DD06"/>
<stop offset="1" stop-color="#FABD0C"/>
</linearGradient>
<linearGradient id="paint23_linear_1291_16536" x1="31.1056" y1="3.3465" x2="35.3445" y2="35.1965" gradientUnits="userSpaceOnUse">
<stop stop-color="#F9DD06"/>
<stop offset="1" stop-color="#FABD0C"/>
</linearGradient>
<linearGradient id="paint24_linear_1291_16536" x1="29.7548" y1="5.20513" x2="33.7804" y2="35.6561" gradientUnits="userSpaceOnUse">
<stop stop-color="#F9DD06"/>
<stop offset="1" stop-color="#FABD0C"/>
</linearGradient>
<linearGradient id="paint25_linear_1291_16536" x1="29.0548" y1="5.84097" x2="33.0784" y2="36.2937" gradientUnits="userSpaceOnUse">
<stop stop-color="#F9DD06"/>
<stop offset="1" stop-color="#FABD0C"/>
</linearGradient>
<linearGradient id="paint26_linear_1291_16536" x1="28.2714" y1="6.43642" x2="32.305" y2="36.8938" gradientUnits="userSpaceOnUse">
<stop stop-color="#F9DD06"/>
<stop offset="1" stop-color="#FABD0C"/>
</linearGradient>
<linearGradient id="paint27_linear_1291_16536" x1="27.7051" y1="6.65112" x2="31.8282" y2="37.5889" gradientUnits="userSpaceOnUse">
<stop stop-color="#F9DD06"/>
<stop offset="1" stop-color="#FABD0C"/>
</linearGradient>
<linearGradient id="paint28_linear_1291_16536" x1="27.7603" y1="6.58666" x2="31.9455" y2="38.3954" gradientUnits="userSpaceOnUse">
<stop stop-color="#F9DD06"/>
<stop offset="1" stop-color="#FABD0C"/>
</linearGradient>
<linearGradient id="paint29_linear_1291_16536" x1="26.7916" y1="7.18921" x2="31.0363" y2="39.0193" gradientUnits="userSpaceOnUse">
<stop stop-color="#F9DD06"/>
<stop offset="1" stop-color="#FABD0C"/>
</linearGradient>
<linearGradient id="paint30_linear_1291_16536" x1="24.7326" y1="9.58407" x2="28.6819" y2="39.2015" gradientUnits="userSpaceOnUse">
<stop stop-color="#F9DD06"/>
<stop offset="1" stop-color="#FABD0C"/>
</linearGradient>
<linearGradient id="paint31_linear_1291_16536" x1="24.6629" y1="9.50464" x2="28.7003" y2="39.9958" gradientUnits="userSpaceOnUse">
<stop stop-color="#F9DD06"/>
<stop offset="1" stop-color="#FABD0C"/>
</linearGradient>
<linearGradient id="paint32_linear_1291_16536" x1="14.813" y1="7.263" x2="23.1323" y2="40.458" gradientUnits="userSpaceOnUse">
<stop stop-color="#F9DD06"/>
<stop offset="1" stop-color="#FABD0C"/>
</linearGradient>
<linearGradient id="paint33_linear_1291_16536" x1="-0.0235662" y1="0.498814" x2="28.0383" y2="23.0974" gradientUnits="userSpaceOnUse">
<stop stop-color="#F9DD06"/>
<stop offset="1" stop-color="#FABD0C"/>
</linearGradient>
<linearGradient id="paint34_linear_1291_16536" x1="-4.93003" y1="-11.6363" x2="24.4064" y2="-4.22883" gradientUnits="userSpaceOnUse">
<stop stop-color="#F9DD06"/>
<stop offset="1" stop-color="#FABD0C"/>
</linearGradient>
<linearGradient id="paint35_linear_1291_16536" x1="-4.98083" y1="-14.95" x2="22.5536" y2="-9.78926" gradientUnits="userSpaceOnUse">
<stop stop-color="#F9DD06"/>
<stop offset="1" stop-color="#FABD0C"/>
</linearGradient>
<linearGradient id="paint36_linear_1291_16536" x1="-4.64976" y1="-17.2759" x2="23.9662" y2="-11.9304" gradientUnits="userSpaceOnUse">
<stop stop-color="#F9DD06"/>
<stop offset="1" stop-color="#FABD0C"/>
</linearGradient>
<linearGradient id="paint37_linear_1291_16536" x1="-4.03365" y1="-17.8323" x2="24.5775" y2="-12.4991" gradientUnits="userSpaceOnUse">
<stop stop-color="#F9DD06"/>
<stop offset="1" stop-color="#FABD0C"/>
</linearGradient>
<linearGradient id="paint38_linear_1291_16536" x1="-3.41136" y1="-18.413" x2="25.1792" y2="-13.1117" gradientUnits="userSpaceOnUse">
<stop stop-color="#F9DD06"/>
<stop offset="1" stop-color="#FABD0C"/>
</linearGradient>
<linearGradient id="paint39_linear_1291_16536" x1="-2.69667" y1="-18.2931" x2="25.5079" y2="-13.0544" gradientUnits="userSpaceOnUse">
<stop stop-color="#F9DD06"/>
<stop offset="1" stop-color="#FABD0C"/>
</linearGradient>
<linearGradient id="paint40_linear_1291_16536" x1="-1.99538" y1="-17.795" x2="25.5139" y2="-12.6792" gradientUnits="userSpaceOnUse">
<stop stop-color="#F9DD06"/>
<stop offset="1" stop-color="#FABD0C"/>
</linearGradient>
<linearGradient id="paint41_linear_1291_16536" x1="-1.3578" y1="-18.2373" x2="26.1899" y2="-13.0774" gradientUnits="userSpaceOnUse">
<stop stop-color="#F9DD06"/>
<stop offset="1" stop-color="#FABD0C"/>
</linearGradient>
<linearGradient id="paint42_linear_1291_16536" x1="-0.884161" y1="-20.4701" x2="27.75" y2="-15.1474" gradientUnits="userSpaceOnUse">
<stop stop-color="#F9DD06"/>
<stop offset="1" stop-color="#FABD0C"/>
</linearGradient>
<linearGradient id="paint43_linear_1291_16536" x1="-0.127112" y1="-18.7967" x2="27.0258" y2="-13.7152" gradientUnits="userSpaceOnUse">
<stop stop-color="#F9DD06"/>
<stop offset="1" stop-color="#FABD0C"/>
</linearGradient>
<linearGradient id="paint44_linear_1291_16536" x1="0.459631" y1="-19.9425" x2="28.0047" y2="-14.8112" gradientUnits="userSpaceOnUse">
<stop stop-color="#F9DD06"/>
<stop offset="1" stop-color="#FABD0C"/>
</linearGradient>
<linearGradient id="paint45_linear_1291_16536" x1="1.06962" y1="-21.2245" x2="29.3231" y2="-15.9022" gradientUnits="userSpaceOnUse">
<stop stop-color="#F9DD06"/>
<stop offset="1" stop-color="#FABD0C"/>
</linearGradient>
<linearGradient id="paint46_linear_1291_16536" x1="1.69133" y1="-20.9213" x2="29.2102" y2="-15.7801" gradientUnits="userSpaceOnUse">
<stop stop-color="#F9DD06"/>
<stop offset="1" stop-color="#FABD0C"/>
</linearGradient>
<linearGradient id="paint47_linear_1291_16536" x1="2.27532" y1="-22.9448" x2="30.916" y2="-17.5926" gradientUnits="userSpaceOnUse">
<stop stop-color="#F9DD06"/>
<stop offset="1" stop-color="#FABD0C"/>
</linearGradient>
<linearGradient id="paint48_linear_1291_16536" x1="2.86817" y1="-22.1547" x2="30.391" y2="-17.0473" gradientUnits="userSpaceOnUse">
<stop stop-color="#F9DD06"/>
<stop offset="1" stop-color="#FABD0C"/>
</linearGradient>
<linearGradient id="paint49_linear_1291_16536" x1="3.5232" y1="-24.0245" x2="32.1349" y2="-18.7037" gradientUnits="userSpaceOnUse">
<stop stop-color="#F9DD06"/>
<stop offset="1" stop-color="#FABD0C"/>
</linearGradient>
<linearGradient id="paint50_linear_1291_16536" x1="4.37806" y1="-22.825" x2="32.8735" y2="-17.0657" gradientUnits="userSpaceOnUse">
<stop stop-color="#F9DD06"/>
<stop offset="1" stop-color="#FABD0C"/>
</linearGradient>
<linearGradient id="paint51_linear_1291_16536" x1="5.21751" y1="-19.7563" x2="36.4181" y2="-11.9685" gradientUnits="userSpaceOnUse">
<stop stop-color="#F9DD06"/>
<stop offset="1" stop-color="#FABD0C"/>
</linearGradient>
<linearGradient id="paint52_linear_1291_16536" x1="23.3385" y1="-3.45128" x2="35.2167" y2="31.4791" gradientUnits="userSpaceOnUse">
<stop stop-color="#F9DD06"/>
<stop offset="1" stop-color="#FABD0C"/>
</linearGradient>
<linearGradient id="paint53_linear_1291_16536" x1="34.0671" y1="-1.58162" x2="39.3793" y2="30.7836" gradientUnits="userSpaceOnUse">
<stop stop-color="#F9DD06"/>
<stop offset="1" stop-color="#FABD0C"/>
</linearGradient>
<linearGradient id="paint54_linear_1291_16536" x1="37.4083" y1="-1.27439" x2="41.3809" y2="29.2212" gradientUnits="userSpaceOnUse">
<stop stop-color="#F9DD06"/>
<stop offset="1" stop-color="#FABD0C"/>
</linearGradient>
<linearGradient id="paint55_linear_1291_16536" x1="39.1096" y1="-2.13471" x2="43.1661" y2="29.179" gradientUnits="userSpaceOnUse">
<stop stop-color="#F9DD06"/>
<stop offset="1" stop-color="#FABD0C"/>
</linearGradient>
<linearGradient id="paint56_linear_1291_16536" x1="40.2132" y1="-2.91855" x2="44.3436" y2="28.8411" gradientUnits="userSpaceOnUse">
<stop stop-color="#F9DD06"/>
<stop offset="1" stop-color="#FABD0C"/>
</linearGradient>
<linearGradient id="paint57_linear_1291_16536" x1="40.0663" y1="-3.28117" x2="44.0714" y2="27.5917" gradientUnits="userSpaceOnUse">
<stop stop-color="#F9DD06"/>
<stop offset="1" stop-color="#FABD0C"/>
</linearGradient>
<linearGradient id="paint58_linear_1291_16536" x1="41.2072" y1="-4.07333" x2="45.2953" y2="27.2908" gradientUnits="userSpaceOnUse">
<stop stop-color="#F9DD06"/>
<stop offset="1" stop-color="#FABD0C"/>
</linearGradient>
<linearGradient id="paint59_linear_1291_16536" x1="40.2567" y1="-4.06221" x2="44.132" y2="25.6121" gradientUnits="userSpaceOnUse">
<stop stop-color="#F9DD06"/>
<stop offset="1" stop-color="#FABD0C"/>
</linearGradient>
<linearGradient id="paint60_linear_1291_16536" x1="41.3254" y1="-4.84325" x2="45.2502" y2="25.1979" gradientUnits="userSpaceOnUse">
<stop stop-color="#F9DD06"/>
<stop offset="1" stop-color="#FABD0C"/>
</linearGradient>
<linearGradient id="paint61_linear_1291_16536" x1="43.275" y1="-6.04334" x2="47.3876" y2="25.3516" gradientUnits="userSpaceOnUse">
<stop stop-color="#F9DD06"/>
<stop offset="1" stop-color="#FABD0C"/>
</linearGradient>
<linearGradient id="paint62_linear_1291_16536" x1="43.8755" y1="-6.64979" x2="47.993" y2="24.6779" gradientUnits="userSpaceOnUse">
<stop stop-color="#F9DD06"/>
<stop offset="1" stop-color="#FABD0C"/>
</linearGradient>
<linearGradient id="paint63_linear_1291_16536" x1="43.5712" y1="-6.66062" x2="47.4801" y2="23.3385" gradientUnits="userSpaceOnUse">
<stop stop-color="#F9DD06"/>
<stop offset="1" stop-color="#FABD0C"/>
</linearGradient>
<linearGradient id="paint64_linear_1291_16536" x1="44.7321" y1="-7.51408" x2="48.7005" y2="22.9566" gradientUnits="userSpaceOnUse">
<stop stop-color="#F9DD06"/>
<stop offset="1" stop-color="#FABD0C"/>
</linearGradient>
<linearGradient id="paint65_linear_1291_16536" x1="45.6101" y1="-8.10657" x2="49.5531" y2="22.3635" gradientUnits="userSpaceOnUse">
<stop stop-color="#F9DD06"/>
<stop offset="1" stop-color="#FABD0C"/>
</linearGradient>
<linearGradient id="paint66_linear_1291_16536" x1="46.8812" y1="-9.20683" x2="50.9782" y2="22.1333" gradientUnits="userSpaceOnUse">
<stop stop-color="#F9DD06"/>
<stop offset="1" stop-color="#FABD0C"/>
</linearGradient>
<linearGradient id="paint67_linear_1291_16536" x1="48.4664" y1="-10.3571" x2="52.6548" y2="21.8879" gradientUnits="userSpaceOnUse">
<stop stop-color="#F9DD06"/>
<stop offset="1" stop-color="#FABD0C"/>
</linearGradient>
<linearGradient id="paint68_linear_1291_16536" x1="49.2142" y1="-11.0191" x2="53.4003" y2="21.2437" gradientUnits="userSpaceOnUse">
<stop stop-color="#F9DD06"/>
<stop offset="1" stop-color="#FABD0C"/>
</linearGradient>
<linearGradient id="paint69_linear_1291_16536" x1="49.7113" y1="-11.7167" x2="53.9327" y2="20.5405" gradientUnits="userSpaceOnUse">
<stop stop-color="#F9DD06"/>
<stop offset="1" stop-color="#FABD0C"/>
</linearGradient>
<linearGradient id="paint70_linear_1291_16536" x1="48.1372" y1="-10.4669" x2="51.9489" y2="18.7396" gradientUnits="userSpaceOnUse">
<stop stop-color="#F9DD06"/>
<stop offset="1" stop-color="#FABD0C"/>
</linearGradient>
<linearGradient id="paint71_linear_1291_16536" x1="50.3871" y1="-12.1481" x2="54.3623" y2="18.7249" gradientUnits="userSpaceOnUse">
<stop stop-color="#F9DD06"/>
<stop offset="1" stop-color="#FABD0C"/>
</linearGradient>
<linearGradient id="paint72_linear_1291_16536" x1="50.7527" y1="-12.805" x2="54.8219" y2="18.1178" gradientUnits="userSpaceOnUse">
<stop stop-color="#F9DD06"/>
<stop offset="1" stop-color="#FABD0C"/>
</linearGradient>
<linearGradient id="paint73_linear_1291_16536" x1="53.9912" y1="-9.96533" x2="57.942" y2="20.4972" gradientUnits="userSpaceOnUse">
<stop stop-color="#F9DD06"/>
<stop offset="1" stop-color="#FABD0C"/>
</linearGradient>
<linearGradient id="paint74_linear_1291_16536" x1="52.179" y1="-11.144" x2="56.8887" y2="19.7445" gradientUnits="userSpaceOnUse">
<stop stop-color="#F9DD06"/>
<stop offset="1" stop-color="#FABD0C"/>
</linearGradient>
<linearGradient id="paint75_linear_1291_16536" x1="29.9568" y1="-11.2921" x2="47.7238" y2="16.0062" gradientUnits="userSpaceOnUse">
<stop stop-color="#F9DD06"/>
<stop offset="1" stop-color="#FABD0C"/>
</linearGradient>
<linearGradient id="paint76_linear_1291_16536" x1="19.6288" y1="-14.1303" x2="54.1055" y2="-1.37166" gradientUnits="userSpaceOnUse">
<stop stop-color="#F9DD06"/>
<stop offset="1" stop-color="#FABD0C"/>
</linearGradient>
<linearGradient id="paint77_linear_1291_16536" x1="10.7086" y1="8.10104" x2="11.0678" y2="11.6301" gradientUnits="userSpaceOnUse">
<stop stop-color="#FEE802"/>
<stop offset="1" stop-color="#FAB320"/>
</linearGradient>
<linearGradient id="paint78_linear_1291_16536" x1="11.8593" y1="24.8801" x2="1.63863" y2="21.8814" gradientUnits="userSpaceOnUse">
<stop stop-color="#FEE802"/>
<stop offset="0.623743" stop-color="#FEE802"/>
<stop offset="1" stop-color="#FAB320"/>
</linearGradient>
<linearGradient id="paint79_linear_1291_16536" x1="10.2896" y1="24.5509" x2="-3.53633" y2="17.4603" gradientUnits="userSpaceOnUse">
<stop stop-color="#FAB320"/>
<stop offset="0.554376" stop-color="#FEE802"/>
<stop offset="1" stop-color="#FEE802"/>
</linearGradient>
<linearGradient id="paint80_linear_1291_16536" x1="17.9319" y1="3.79132" x2="27.0301" y2="33.7034" gradientUnits="userSpaceOnUse">
<stop stop-color="#F9DD06"/>
<stop offset="1" stop-color="#FABD0C"/>
</linearGradient>
<linearGradient id="paint81_linear_1291_16536" x1="22.9286" y1="5.15603" x2="28.4082" y2="32.4265" gradientUnits="userSpaceOnUse">
<stop stop-color="#F9DD06"/>
<stop offset="1" stop-color="#FABD0C"/>
</linearGradient>
<linearGradient id="paint82_linear_1291_16536" x1="23.5313" y1="4.58956" x2="28.9702" y2="31.8503" gradientUnits="userSpaceOnUse">
<stop stop-color="#F9DD06"/>
<stop offset="1" stop-color="#FABD0C"/>
</linearGradient>
<linearGradient id="paint83_linear_1291_16536" x1="23.5216" y1="4.29618" x2="28.8553" y2="30.9297" gradientUnits="userSpaceOnUse">
<stop stop-color="#F9DD06"/>
<stop offset="1" stop-color="#FABD0C"/>
</linearGradient>
<linearGradient id="paint84_linear_1291_16536" x1="24.7375" y1="3.24212" x2="30.2253" y2="30.8165" gradientUnits="userSpaceOnUse">
<stop stop-color="#F9DD06"/>
<stop offset="1" stop-color="#FABD0C"/>
</linearGradient>
<linearGradient id="paint85_linear_1291_16536" x1="24.7822" y1="2.97573" x2="30.1574" y2="29.9249" gradientUnits="userSpaceOnUse">
<stop stop-color="#F9DD06"/>
<stop offset="1" stop-color="#FABD0C"/>
</linearGradient>
<linearGradient id="paint86_linear_1291_16536" x1="16.0607" y1="7.78251" x2="23.4294" y2="35.2761" gradientUnits="userSpaceOnUse">
<stop stop-color="#F9DD06"/>
<stop offset="1" stop-color="#FABD0C"/>
</linearGradient>
<linearGradient id="paint87_linear_1291_16536" x1="9.68404" y1="5.13718" x2="24.8276" y2="33.8814" gradientUnits="userSpaceOnUse">
<stop stop-color="#F9DD06"/>
<stop offset="1" stop-color="#FABD0C"/>
</linearGradient>
<linearGradient id="paint88_linear_1291_16536" x1="19.943" y1="7.81674" x2="25.572" y2="34.9031" gradientUnits="userSpaceOnUse">
<stop stop-color="#F9DD06"/>
<stop offset="1" stop-color="#FABD0C"/>
</linearGradient>
<linearGradient id="paint89_linear_1291_16536" x1="20.5624" y1="7.06572" x2="26.2877" y2="34.484" gradientUnits="userSpaceOnUse">
<stop stop-color="#F9DD06"/>
<stop offset="1" stop-color="#FABD0C"/>
</linearGradient>
<linearGradient id="paint90_linear_1291_16536" x1="22.8445" y1="7.28847" x2="27.5224" y2="33.5426" gradientUnits="userSpaceOnUse">
<stop stop-color="#F9DD06"/>
<stop offset="1" stop-color="#FABD0C"/>
</linearGradient>
<linearGradient id="paint91_linear_1291_16536" x1="20.3577" y1="5.52676" x2="26.6854" y2="33.1526" gradientUnits="userSpaceOnUse">
<stop stop-color="#F9DD06"/>
<stop offset="1" stop-color="#FABD0C"/>
</linearGradient>
<linearGradient id="paint92_linear_1291_16536" x1="10.9533" y1="1.27102" x2="28.2091" y2="29.3814" gradientUnits="userSpaceOnUse">
<stop stop-color="#F9DD06"/>
<stop offset="1" stop-color="#FABD0C"/>
</linearGradient>
<linearGradient id="paint93_linear_1291_16536" x1="5.84385" y1="-6.15289" x2="35.6676" y2="13.1722" gradientUnits="userSpaceOnUse">
<stop stop-color="#F9DD06"/>
<stop offset="1" stop-color="#FABD0C"/>
</linearGradient>
<linearGradient id="paint94_linear_1291_16536" x1="2.62181" y1="-16.5384" x2="31.993" y2="-10.1505" gradientUnits="userSpaceOnUse">
<stop stop-color="#F9DD06"/>
<stop offset="1" stop-color="#FABD0C"/>
</linearGradient>
<linearGradient id="paint95_linear_1291_16536" x1="2.93403" y1="-18.6765" x2="32.6211" y2="-12.6511" gradientUnits="userSpaceOnUse">
<stop stop-color="#F9DD06"/>
<stop offset="1" stop-color="#FABD0C"/>
</linearGradient>
<linearGradient id="paint96_linear_1291_16536" x1="8.18821" y1="-6.38621" x2="36.339" y2="14.4826" gradientUnits="userSpaceOnUse">
<stop stop-color="#F9DD06"/>
<stop offset="1" stop-color="#FABD0C"/>
</linearGradient>
<linearGradient id="paint97_linear_1291_16536" x1="15.0248" y1="-0.359772" x2="29.1795" y2="28.1531" gradientUnits="userSpaceOnUse">
<stop stop-color="#F9DD06"/>
<stop offset="1" stop-color="#FABD0C"/>
</linearGradient>
<linearGradient id="paint98_linear_1291_16536" x1="7.1692" y1="17.7689" x2="9.35222" y2="20.29" gradientUnits="userSpaceOnUse">
<stop stop-color="#939694"/>
<stop offset="0.490476" stop-color="#939694"/>
<stop offset="0.720665" stop-color="#939694"/>
<stop offset="0.914286" stop-color="white"/>
<stop offset="1" stop-color="#F7F5F6"/>
</linearGradient>
<linearGradient id="paint99_linear_1291_16536" x1="7.08563" y1="17.8413" x2="9.08381" y2="20.2035" gradientUnits="userSpaceOnUse">
<stop stop-color="#939694"/>
<stop offset="0.543141" stop-color="#939694"/>
<stop offset="1" stop-color="#CECCC9"/>
</linearGradient>
<linearGradient id="paint100_linear_1291_16536" x1="6.64184" y1="18.2211" x2="7.80883" y2="19.7041" gradientUnits="userSpaceOnUse">
<stop stop-color="white"/>
<stop offset="0.543141" stop-color="white"/>
<stop offset="1" stop-color="#CECCC9"/>
</linearGradient>
</defs>
</svg>
